M48
;DRILL file {KiCad 4.0.5+dfsg1-4} date Thu Jun  7 11:34:54 2018
;FORMAT={2:4/ absolute / inch / suppress leading zeros}
FMAT,2
INCH,TZ
T1C0.031
T2C0.040
T3C0.126
%
G90
G05
M72
T1
X67000Y-35000
X68000Y-35000
X69000Y-35000
X70000Y-35000
X71000Y-35000
T2
X55000Y-29000
X55000Y-30000
X55000Y-31000
X55000Y-32000
X55000Y-33000
X55000Y-34000
X55000Y-35000
X55000Y-36000
X62000Y-42750
X64000Y-29000
X64000Y-30000
X64000Y-31000
X64000Y-32000
X64000Y-33000
X64000Y-34000
X64000Y-35000
X64000Y-36000
X65000Y-42750
X68000Y-38000
X69000Y-38000
X70000Y-38000
X71000Y-38000
T3
X56000Y-24000
X56000Y-42000
X71000Y-24000
X71000Y-42000
T0
M30
