G04 #@! TF.FileFunction,Soldermask,Top*
%FSLAX46Y46*%
G04 Gerber Fmt 4.6, Leading zero omitted, Abs format (unit mm)*
G04 Created by KiCad (PCBNEW 4.0.5+dfsg1-4) date Thu Jun  7 11:31:42 2018*
%MOMM*%
%LPD*%
G01*
G04 APERTURE LIST*
%ADD10C,0.100000*%
%ADD11O,1.600000X2.400000*%
%ADD12C,2.200000*%
%ADD13C,6.800000*%
%ADD14R,2.127200X2.432000*%
%ADD15O,2.127200X2.432000*%
%ADD16R,2.635200X2.635200*%
G04 APERTURE END LIST*
D10*
G36*
X148882504Y-100357909D02*
X148882504Y-100932720D01*
X150054693Y-100935473D01*
X151226883Y-100938244D01*
X152399073Y-100941015D01*
X151577265Y-101600639D01*
X150755487Y-102260299D01*
X150753489Y-102838916D01*
X151967806Y-102894420D01*
X153088298Y-103365384D01*
X153979369Y-104195337D01*
X154503094Y-105211652D01*
X154670307Y-106342525D01*
X154460355Y-107465846D01*
X153899983Y-108449841D01*
X153055206Y-109203518D01*
X152012120Y-109643339D01*
X150899833Y-109722784D01*
X149820624Y-109448880D01*
X148885358Y-108844329D01*
X148212417Y-108014292D01*
X147822872Y-107020451D01*
X147757107Y-105955152D01*
X148109227Y-104724996D01*
X148884233Y-103702934D01*
X148457772Y-103306922D01*
X147808122Y-104079122D01*
X147372668Y-104989003D01*
X147171040Y-105977447D01*
X147222869Y-106985336D01*
X147524448Y-107949728D01*
X148056641Y-108808285D01*
X148780898Y-109512251D01*
X149658667Y-110012870D01*
X150611895Y-110274536D01*
X151600045Y-110297787D01*
X152564930Y-110085900D01*
X153448368Y-109642151D01*
X154185471Y-109009819D01*
X154750773Y-108220352D01*
X155115762Y-107321102D01*
X155251921Y-106359424D01*
X155082719Y-105117876D01*
X154543737Y-103986894D01*
X153683953Y-103075629D01*
X152801938Y-102555878D01*
X151817778Y-102274521D01*
X152682930Y-101582401D01*
X153548061Y-100890257D01*
X153548061Y-100316888D01*
X152381673Y-100316888D01*
X151215285Y-100316888D01*
X150048898Y-100316888D01*
X148882511Y-100316888D01*
X148882511Y-100337400D01*
X148882504Y-100357909D01*
X148882504Y-100357909D01*
G37*
G36*
X150753780Y-103997012D02*
X150753780Y-104873012D01*
X151715628Y-104873012D01*
X151715628Y-103955310D01*
X150753780Y-103955310D01*
X150753780Y-103976161D01*
X150753780Y-103997012D01*
X150753780Y-103997012D01*
G37*
G36*
X150753780Y-105092440D02*
X150753780Y-106273716D01*
X150753780Y-107454992D01*
X150753780Y-108636268D01*
X151715628Y-108636268D01*
X151715628Y-107441091D01*
X151715628Y-106245914D01*
X151715628Y-105050737D01*
X150753780Y-105050737D01*
X150753780Y-105071588D01*
X150753780Y-105092440D01*
X150753780Y-105092440D01*
G37*
D11*
X170180000Y-88900000D03*
X172720000Y-88900000D03*
X175260000Y-88900000D03*
X177800000Y-88900000D03*
X180340000Y-88900000D03*
D12*
X139700000Y-73660000D03*
X139700000Y-76200000D03*
X139700000Y-78740000D03*
X139700000Y-81280000D03*
X139700000Y-83820000D03*
X139700000Y-86360000D03*
X139700000Y-88900000D03*
X139700000Y-91440000D03*
X162560000Y-91440000D03*
X162560000Y-88900000D03*
X162560000Y-86360000D03*
X162560000Y-83820000D03*
X162560000Y-81280000D03*
X162560000Y-78740000D03*
X162560000Y-76200000D03*
X162560000Y-73660000D03*
D13*
X142240000Y-106680000D03*
X180340000Y-106680000D03*
X180340000Y-60960000D03*
D14*
X180340000Y-96520000D03*
D15*
X177800000Y-96520000D03*
X175260000Y-96520000D03*
X172720000Y-96520000D03*
D13*
X142240000Y-60960000D03*
D16*
X165100000Y-108585000D03*
X157480000Y-108585000D03*
M02*
