G04 #@! TF.FileFunction,Copper,L2,Bot,Signal*
%FSLAX46Y46*%
G04 Gerber Fmt 4.6, Leading zero omitted, Abs format (unit mm)*
G04 Created by KiCad (PCBNEW 4.0.5+dfsg1-4) date Thu Jun  7 11:31:42 2018*
%MOMM*%
%LPD*%
G01*
G04 APERTURE LIST*
%ADD10C,0.100000*%
%ADD11O,1.200000X2.000000*%
%ADD12C,1.800000*%
%ADD13C,6.400000*%
%ADD14R,1.727200X2.032000*%
%ADD15O,1.727200X2.032000*%
%ADD16R,2.235200X2.235200*%
%ADD17C,0.250000*%
%ADD18C,0.254000*%
G04 APERTURE END LIST*
D10*
D11*
X170180000Y-88900000D03*
X172720000Y-88900000D03*
X175260000Y-88900000D03*
X177800000Y-88900000D03*
X180340000Y-88900000D03*
D12*
X139700000Y-73660000D03*
X139700000Y-76200000D03*
X139700000Y-78740000D03*
X139700000Y-81280000D03*
X139700000Y-83820000D03*
X139700000Y-86360000D03*
X139700000Y-88900000D03*
X139700000Y-91440000D03*
X162560000Y-91440000D03*
X162560000Y-88900000D03*
X162560000Y-86360000D03*
X162560000Y-83820000D03*
X162560000Y-81280000D03*
X162560000Y-78740000D03*
X162560000Y-76200000D03*
X162560000Y-73660000D03*
D13*
X142240000Y-106680000D03*
X180340000Y-106680000D03*
X180340000Y-60960000D03*
D14*
X180340000Y-96520000D03*
D15*
X177800000Y-96520000D03*
X175260000Y-96520000D03*
X172720000Y-96520000D03*
D13*
X142240000Y-60960000D03*
D16*
X165100000Y-108585000D03*
X157480000Y-108585000D03*
D17*
X162560000Y-91440000D02*
X177800000Y-91440000D01*
X177800000Y-91440000D02*
X180340000Y-88900000D01*
X180340000Y-96520000D02*
X180340000Y-88900000D01*
X157480000Y-108585000D02*
X156845000Y-108585000D01*
X156845000Y-108585000D02*
X154940000Y-106680000D01*
X154940000Y-106680000D02*
X139700000Y-91440000D01*
D18*
G36*
X178170485Y-57706950D02*
X177090741Y-58784811D01*
X176505667Y-60193825D01*
X176504336Y-61719482D01*
X177086950Y-63129515D01*
X178164811Y-64209259D01*
X179573825Y-64794333D01*
X181099482Y-64795664D01*
X182509515Y-64213050D01*
X183589259Y-63135189D01*
X184023000Y-62090625D01*
X184023000Y-105551043D01*
X183593050Y-104510485D01*
X182515189Y-103430741D01*
X181106175Y-102845667D01*
X179580518Y-102844336D01*
X178170485Y-103426950D01*
X177090741Y-104504811D01*
X176505667Y-105913825D01*
X176504336Y-107439482D01*
X177086950Y-108849515D01*
X178164811Y-109929259D01*
X179209375Y-110363000D01*
X143368957Y-110363000D01*
X144409515Y-109933050D01*
X145489259Y-108855189D01*
X146074333Y-107446175D01*
X146075664Y-105920518D01*
X145493050Y-104510485D01*
X144415189Y-103430741D01*
X143006175Y-102845667D01*
X141480518Y-102844336D01*
X140070485Y-103426950D01*
X138990741Y-104504811D01*
X138557000Y-105549375D01*
X138557000Y-92467717D01*
X138829357Y-92740551D01*
X139393330Y-92974733D01*
X140003991Y-92975265D01*
X140114713Y-92929515D01*
X155714960Y-108529762D01*
X155714960Y-109702600D01*
X155759238Y-109937917D01*
X155898310Y-110154041D01*
X156110510Y-110299031D01*
X156362400Y-110350040D01*
X158597600Y-110350040D01*
X158832917Y-110305762D01*
X159049041Y-110166690D01*
X159194031Y-109954490D01*
X159245040Y-109702600D01*
X159245040Y-108870750D01*
X163347400Y-108870750D01*
X163347400Y-109828910D01*
X163444073Y-110062299D01*
X163622702Y-110240927D01*
X163856091Y-110337600D01*
X164814250Y-110337600D01*
X164973000Y-110178850D01*
X164973000Y-108712000D01*
X165227000Y-108712000D01*
X165227000Y-110178850D01*
X165385750Y-110337600D01*
X166343909Y-110337600D01*
X166577298Y-110240927D01*
X166755927Y-110062299D01*
X166852600Y-109828910D01*
X166852600Y-108870750D01*
X166693850Y-108712000D01*
X165227000Y-108712000D01*
X164973000Y-108712000D01*
X163506150Y-108712000D01*
X163347400Y-108870750D01*
X159245040Y-108870750D01*
X159245040Y-107467400D01*
X159221274Y-107341090D01*
X163347400Y-107341090D01*
X163347400Y-108299250D01*
X163506150Y-108458000D01*
X164973000Y-108458000D01*
X164973000Y-106991150D01*
X165227000Y-106991150D01*
X165227000Y-108458000D01*
X166693850Y-108458000D01*
X166852600Y-108299250D01*
X166852600Y-107341090D01*
X166755927Y-107107701D01*
X166577298Y-106929073D01*
X166343909Y-106832400D01*
X165385750Y-106832400D01*
X165227000Y-106991150D01*
X164973000Y-106991150D01*
X164814250Y-106832400D01*
X163856091Y-106832400D01*
X163622702Y-106929073D01*
X163444073Y-107107701D01*
X163347400Y-107341090D01*
X159221274Y-107341090D01*
X159200762Y-107232083D01*
X159061690Y-107015959D01*
X158849490Y-106870969D01*
X158597600Y-106819960D01*
X156362400Y-106819960D01*
X156187645Y-106852843D01*
X145670057Y-96335255D01*
X171221400Y-96335255D01*
X171221400Y-96704745D01*
X171335474Y-97278234D01*
X171660330Y-97764415D01*
X172146511Y-98089271D01*
X172720000Y-98203345D01*
X173293489Y-98089271D01*
X173779670Y-97764415D01*
X173990000Y-97449634D01*
X174200330Y-97764415D01*
X174686511Y-98089271D01*
X175260000Y-98203345D01*
X175833489Y-98089271D01*
X176319670Y-97764415D01*
X176526461Y-97454931D01*
X176897964Y-97870732D01*
X177425209Y-98124709D01*
X177440974Y-98127358D01*
X177673000Y-98006217D01*
X177673000Y-96647000D01*
X177653000Y-96647000D01*
X177653000Y-96393000D01*
X177673000Y-96393000D01*
X177673000Y-95033783D01*
X177440974Y-94912642D01*
X177425209Y-94915291D01*
X176897964Y-95169268D01*
X176526461Y-95585069D01*
X176319670Y-95275585D01*
X175833489Y-94950729D01*
X175260000Y-94836655D01*
X174686511Y-94950729D01*
X174200330Y-95275585D01*
X173990000Y-95590366D01*
X173779670Y-95275585D01*
X173293489Y-94950729D01*
X172720000Y-94836655D01*
X172146511Y-94950729D01*
X171660330Y-95275585D01*
X171335474Y-95761766D01*
X171221400Y-96335255D01*
X145670057Y-96335255D01*
X141189766Y-91854964D01*
X141234733Y-91746670D01*
X141235265Y-91136009D01*
X141002068Y-90571629D01*
X140570643Y-90139449D01*
X140549806Y-90130797D01*
X140600554Y-89980159D01*
X139700000Y-89079605D01*
X138799446Y-89980159D01*
X138850035Y-90130327D01*
X138831629Y-90137932D01*
X138557000Y-90412081D01*
X138557000Y-89779384D01*
X138619841Y-89800554D01*
X139520395Y-88900000D01*
X139879605Y-88900000D01*
X140780159Y-89800554D01*
X141036643Y-89714148D01*
X141246458Y-89140664D01*
X141220839Y-88530540D01*
X141036643Y-88085852D01*
X140780159Y-87999446D01*
X139879605Y-88900000D01*
X139520395Y-88900000D01*
X138619841Y-87999446D01*
X138557000Y-88020616D01*
X138557000Y-87387717D01*
X138829357Y-87660551D01*
X138850194Y-87669203D01*
X138799446Y-87819841D01*
X139700000Y-88720395D01*
X140600554Y-87819841D01*
X140549965Y-87669673D01*
X140568371Y-87662068D01*
X141000551Y-87230643D01*
X141234733Y-86666670D01*
X141235265Y-86056009D01*
X141002068Y-85491629D01*
X140600818Y-85089677D01*
X141000551Y-84690643D01*
X141234733Y-84126670D01*
X141235265Y-83516009D01*
X141002068Y-82951629D01*
X140600818Y-82549677D01*
X141000551Y-82150643D01*
X141234733Y-81586670D01*
X141235265Y-80976009D01*
X141002068Y-80411629D01*
X140600818Y-80009677D01*
X141000551Y-79610643D01*
X141234733Y-79046670D01*
X141235265Y-78436009D01*
X141002068Y-77871629D01*
X140600818Y-77469677D01*
X141000551Y-77070643D01*
X141234733Y-76506670D01*
X141235265Y-75896009D01*
X141002068Y-75331629D01*
X140600818Y-74929677D01*
X141000551Y-74530643D01*
X141234733Y-73966670D01*
X141234735Y-73963991D01*
X161024735Y-73963991D01*
X161257932Y-74528371D01*
X161659182Y-74930323D01*
X161259449Y-75329357D01*
X161025267Y-75893330D01*
X161024735Y-76503991D01*
X161257932Y-77068371D01*
X161659182Y-77470323D01*
X161259449Y-77869357D01*
X161025267Y-78433330D01*
X161024735Y-79043991D01*
X161257932Y-79608371D01*
X161659182Y-80010323D01*
X161259449Y-80409357D01*
X161025267Y-80973330D01*
X161024735Y-81583991D01*
X161257932Y-82148371D01*
X161659182Y-82550323D01*
X161259449Y-82949357D01*
X161025267Y-83513330D01*
X161024735Y-84123991D01*
X161257932Y-84688371D01*
X161659182Y-85090323D01*
X161259449Y-85489357D01*
X161025267Y-86053330D01*
X161024735Y-86663991D01*
X161257932Y-87228371D01*
X161659182Y-87630323D01*
X161259449Y-88029357D01*
X161025267Y-88593330D01*
X161024735Y-89203991D01*
X161257932Y-89768371D01*
X161659182Y-90170323D01*
X161259449Y-90569357D01*
X161025267Y-91133330D01*
X161024735Y-91743991D01*
X161257932Y-92308371D01*
X161689357Y-92740551D01*
X162253330Y-92974733D01*
X162863991Y-92975265D01*
X163428371Y-92742068D01*
X163860551Y-92310643D01*
X163906494Y-92200000D01*
X177800000Y-92200000D01*
X178090839Y-92142148D01*
X178337401Y-91977401D01*
X179580000Y-90734802D01*
X179580000Y-94856560D01*
X179476400Y-94856560D01*
X179241083Y-94900838D01*
X179024959Y-95039910D01*
X178879969Y-95252110D01*
X178860768Y-95346927D01*
X178702036Y-95169268D01*
X178174791Y-94915291D01*
X178159026Y-94912642D01*
X177927000Y-95033783D01*
X177927000Y-96393000D01*
X177947000Y-96393000D01*
X177947000Y-96647000D01*
X177927000Y-96647000D01*
X177927000Y-98006217D01*
X178159026Y-98127358D01*
X178174791Y-98124709D01*
X178702036Y-97870732D01*
X178858907Y-97695155D01*
X178873238Y-97771317D01*
X179012310Y-97987441D01*
X179224510Y-98132431D01*
X179476400Y-98183440D01*
X181203600Y-98183440D01*
X181438917Y-98139162D01*
X181655041Y-98000090D01*
X181800031Y-97787890D01*
X181851040Y-97536000D01*
X181851040Y-95504000D01*
X181806762Y-95268683D01*
X181667690Y-95052559D01*
X181455490Y-94907569D01*
X181203600Y-94856560D01*
X181100000Y-94856560D01*
X181100000Y-90280998D01*
X181213277Y-90205309D01*
X181480991Y-89804646D01*
X181575000Y-89332032D01*
X181575000Y-88467968D01*
X181480991Y-87995354D01*
X181213277Y-87594691D01*
X180812614Y-87326977D01*
X180340000Y-87232968D01*
X179867386Y-87326977D01*
X179466723Y-87594691D01*
X179199009Y-87995354D01*
X179105000Y-88467968D01*
X179105000Y-89060198D01*
X179035000Y-89130198D01*
X179035000Y-88467968D01*
X178940991Y-87995354D01*
X178673277Y-87594691D01*
X178272614Y-87326977D01*
X177800000Y-87232968D01*
X177327386Y-87326977D01*
X176926723Y-87594691D01*
X176659009Y-87995354D01*
X176565000Y-88467968D01*
X176565000Y-89332032D01*
X176659009Y-89804646D01*
X176926723Y-90205309D01*
X177327386Y-90473023D01*
X177631652Y-90533546D01*
X177485198Y-90680000D01*
X163906846Y-90680000D01*
X163862068Y-90571629D01*
X163460818Y-90169677D01*
X163860551Y-89770643D01*
X164094733Y-89206670D01*
X164094889Y-89027000D01*
X168945000Y-89027000D01*
X168945000Y-89427000D01*
X169087610Y-89889947D01*
X169396526Y-90263080D01*
X169824719Y-90489592D01*
X169862391Y-90493462D01*
X170053000Y-90368731D01*
X170053000Y-89027000D01*
X170307000Y-89027000D01*
X170307000Y-90368731D01*
X170497609Y-90493462D01*
X170535281Y-90489592D01*
X170963474Y-90263080D01*
X171272390Y-89889947D01*
X171415000Y-89427000D01*
X171415000Y-89027000D01*
X171485000Y-89027000D01*
X171485000Y-89427000D01*
X171627610Y-89889947D01*
X171936526Y-90263080D01*
X172364719Y-90489592D01*
X172402391Y-90493462D01*
X172593000Y-90368731D01*
X172593000Y-89027000D01*
X172847000Y-89027000D01*
X172847000Y-90368731D01*
X173037609Y-90493462D01*
X173075281Y-90489592D01*
X173503474Y-90263080D01*
X173812390Y-89889947D01*
X173955000Y-89427000D01*
X173955000Y-89027000D01*
X172847000Y-89027000D01*
X172593000Y-89027000D01*
X171485000Y-89027000D01*
X171415000Y-89027000D01*
X170307000Y-89027000D01*
X170053000Y-89027000D01*
X168945000Y-89027000D01*
X164094889Y-89027000D01*
X164095265Y-88596009D01*
X164003120Y-88373000D01*
X168945000Y-88373000D01*
X168945000Y-88773000D01*
X170053000Y-88773000D01*
X170053000Y-87431269D01*
X170307000Y-87431269D01*
X170307000Y-88773000D01*
X171415000Y-88773000D01*
X171415000Y-88373000D01*
X171485000Y-88373000D01*
X171485000Y-88773000D01*
X172593000Y-88773000D01*
X172593000Y-87431269D01*
X172847000Y-87431269D01*
X172847000Y-88773000D01*
X173955000Y-88773000D01*
X173955000Y-88467968D01*
X174025000Y-88467968D01*
X174025000Y-89332032D01*
X174119009Y-89804646D01*
X174386723Y-90205309D01*
X174787386Y-90473023D01*
X175260000Y-90567032D01*
X175732614Y-90473023D01*
X176133277Y-90205309D01*
X176400991Y-89804646D01*
X176495000Y-89332032D01*
X176495000Y-88467968D01*
X176400991Y-87995354D01*
X176133277Y-87594691D01*
X175732614Y-87326977D01*
X175260000Y-87232968D01*
X174787386Y-87326977D01*
X174386723Y-87594691D01*
X174119009Y-87995354D01*
X174025000Y-88467968D01*
X173955000Y-88467968D01*
X173955000Y-88373000D01*
X173812390Y-87910053D01*
X173503474Y-87536920D01*
X173075281Y-87310408D01*
X173037609Y-87306538D01*
X172847000Y-87431269D01*
X172593000Y-87431269D01*
X172402391Y-87306538D01*
X172364719Y-87310408D01*
X171936526Y-87536920D01*
X171627610Y-87910053D01*
X171485000Y-88373000D01*
X171415000Y-88373000D01*
X171272390Y-87910053D01*
X170963474Y-87536920D01*
X170535281Y-87310408D01*
X170497609Y-87306538D01*
X170307000Y-87431269D01*
X170053000Y-87431269D01*
X169862391Y-87306538D01*
X169824719Y-87310408D01*
X169396526Y-87536920D01*
X169087610Y-87910053D01*
X168945000Y-88373000D01*
X164003120Y-88373000D01*
X163862068Y-88031629D01*
X163460818Y-87629677D01*
X163860551Y-87230643D01*
X164094733Y-86666670D01*
X164095265Y-86056009D01*
X163862068Y-85491629D01*
X163460818Y-85089677D01*
X163860551Y-84690643D01*
X164094733Y-84126670D01*
X164095265Y-83516009D01*
X163862068Y-82951629D01*
X163460818Y-82549677D01*
X163860551Y-82150643D01*
X164094733Y-81586670D01*
X164095265Y-80976009D01*
X163862068Y-80411629D01*
X163460818Y-80009677D01*
X163860551Y-79610643D01*
X164094733Y-79046670D01*
X164095265Y-78436009D01*
X163862068Y-77871629D01*
X163460818Y-77469677D01*
X163860551Y-77070643D01*
X164094733Y-76506670D01*
X164095265Y-75896009D01*
X163862068Y-75331629D01*
X163460818Y-74929677D01*
X163860551Y-74530643D01*
X164094733Y-73966670D01*
X164095265Y-73356009D01*
X163862068Y-72791629D01*
X163430643Y-72359449D01*
X162866670Y-72125267D01*
X162256009Y-72124735D01*
X161691629Y-72357932D01*
X161259449Y-72789357D01*
X161025267Y-73353330D01*
X161024735Y-73963991D01*
X141234735Y-73963991D01*
X141235265Y-73356009D01*
X141002068Y-72791629D01*
X140570643Y-72359449D01*
X140006670Y-72125267D01*
X139396009Y-72124735D01*
X138831629Y-72357932D01*
X138557000Y-72632081D01*
X138557000Y-62088957D01*
X138986950Y-63129515D01*
X140064811Y-64209259D01*
X141473825Y-64794333D01*
X142999482Y-64795664D01*
X144409515Y-64213050D01*
X145489259Y-63135189D01*
X146074333Y-61726175D01*
X146075664Y-60200518D01*
X145493050Y-58790485D01*
X144415189Y-57710741D01*
X143370625Y-57277000D01*
X179211043Y-57277000D01*
X178170485Y-57706950D01*
X178170485Y-57706950D01*
G37*
X178170485Y-57706950D02*
X177090741Y-58784811D01*
X176505667Y-60193825D01*
X176504336Y-61719482D01*
X177086950Y-63129515D01*
X178164811Y-64209259D01*
X179573825Y-64794333D01*
X181099482Y-64795664D01*
X182509515Y-64213050D01*
X183589259Y-63135189D01*
X184023000Y-62090625D01*
X184023000Y-105551043D01*
X183593050Y-104510485D01*
X182515189Y-103430741D01*
X181106175Y-102845667D01*
X179580518Y-102844336D01*
X178170485Y-103426950D01*
X177090741Y-104504811D01*
X176505667Y-105913825D01*
X176504336Y-107439482D01*
X177086950Y-108849515D01*
X178164811Y-109929259D01*
X179209375Y-110363000D01*
X143368957Y-110363000D01*
X144409515Y-109933050D01*
X145489259Y-108855189D01*
X146074333Y-107446175D01*
X146075664Y-105920518D01*
X145493050Y-104510485D01*
X144415189Y-103430741D01*
X143006175Y-102845667D01*
X141480518Y-102844336D01*
X140070485Y-103426950D01*
X138990741Y-104504811D01*
X138557000Y-105549375D01*
X138557000Y-92467717D01*
X138829357Y-92740551D01*
X139393330Y-92974733D01*
X140003991Y-92975265D01*
X140114713Y-92929515D01*
X155714960Y-108529762D01*
X155714960Y-109702600D01*
X155759238Y-109937917D01*
X155898310Y-110154041D01*
X156110510Y-110299031D01*
X156362400Y-110350040D01*
X158597600Y-110350040D01*
X158832917Y-110305762D01*
X159049041Y-110166690D01*
X159194031Y-109954490D01*
X159245040Y-109702600D01*
X159245040Y-108870750D01*
X163347400Y-108870750D01*
X163347400Y-109828910D01*
X163444073Y-110062299D01*
X163622702Y-110240927D01*
X163856091Y-110337600D01*
X164814250Y-110337600D01*
X164973000Y-110178850D01*
X164973000Y-108712000D01*
X165227000Y-108712000D01*
X165227000Y-110178850D01*
X165385750Y-110337600D01*
X166343909Y-110337600D01*
X166577298Y-110240927D01*
X166755927Y-110062299D01*
X166852600Y-109828910D01*
X166852600Y-108870750D01*
X166693850Y-108712000D01*
X165227000Y-108712000D01*
X164973000Y-108712000D01*
X163506150Y-108712000D01*
X163347400Y-108870750D01*
X159245040Y-108870750D01*
X159245040Y-107467400D01*
X159221274Y-107341090D01*
X163347400Y-107341090D01*
X163347400Y-108299250D01*
X163506150Y-108458000D01*
X164973000Y-108458000D01*
X164973000Y-106991150D01*
X165227000Y-106991150D01*
X165227000Y-108458000D01*
X166693850Y-108458000D01*
X166852600Y-108299250D01*
X166852600Y-107341090D01*
X166755927Y-107107701D01*
X166577298Y-106929073D01*
X166343909Y-106832400D01*
X165385750Y-106832400D01*
X165227000Y-106991150D01*
X164973000Y-106991150D01*
X164814250Y-106832400D01*
X163856091Y-106832400D01*
X163622702Y-106929073D01*
X163444073Y-107107701D01*
X163347400Y-107341090D01*
X159221274Y-107341090D01*
X159200762Y-107232083D01*
X159061690Y-107015959D01*
X158849490Y-106870969D01*
X158597600Y-106819960D01*
X156362400Y-106819960D01*
X156187645Y-106852843D01*
X145670057Y-96335255D01*
X171221400Y-96335255D01*
X171221400Y-96704745D01*
X171335474Y-97278234D01*
X171660330Y-97764415D01*
X172146511Y-98089271D01*
X172720000Y-98203345D01*
X173293489Y-98089271D01*
X173779670Y-97764415D01*
X173990000Y-97449634D01*
X174200330Y-97764415D01*
X174686511Y-98089271D01*
X175260000Y-98203345D01*
X175833489Y-98089271D01*
X176319670Y-97764415D01*
X176526461Y-97454931D01*
X176897964Y-97870732D01*
X177425209Y-98124709D01*
X177440974Y-98127358D01*
X177673000Y-98006217D01*
X177673000Y-96647000D01*
X177653000Y-96647000D01*
X177653000Y-96393000D01*
X177673000Y-96393000D01*
X177673000Y-95033783D01*
X177440974Y-94912642D01*
X177425209Y-94915291D01*
X176897964Y-95169268D01*
X176526461Y-95585069D01*
X176319670Y-95275585D01*
X175833489Y-94950729D01*
X175260000Y-94836655D01*
X174686511Y-94950729D01*
X174200330Y-95275585D01*
X173990000Y-95590366D01*
X173779670Y-95275585D01*
X173293489Y-94950729D01*
X172720000Y-94836655D01*
X172146511Y-94950729D01*
X171660330Y-95275585D01*
X171335474Y-95761766D01*
X171221400Y-96335255D01*
X145670057Y-96335255D01*
X141189766Y-91854964D01*
X141234733Y-91746670D01*
X141235265Y-91136009D01*
X141002068Y-90571629D01*
X140570643Y-90139449D01*
X140549806Y-90130797D01*
X140600554Y-89980159D01*
X139700000Y-89079605D01*
X138799446Y-89980159D01*
X138850035Y-90130327D01*
X138831629Y-90137932D01*
X138557000Y-90412081D01*
X138557000Y-89779384D01*
X138619841Y-89800554D01*
X139520395Y-88900000D01*
X139879605Y-88900000D01*
X140780159Y-89800554D01*
X141036643Y-89714148D01*
X141246458Y-89140664D01*
X141220839Y-88530540D01*
X141036643Y-88085852D01*
X140780159Y-87999446D01*
X139879605Y-88900000D01*
X139520395Y-88900000D01*
X138619841Y-87999446D01*
X138557000Y-88020616D01*
X138557000Y-87387717D01*
X138829357Y-87660551D01*
X138850194Y-87669203D01*
X138799446Y-87819841D01*
X139700000Y-88720395D01*
X140600554Y-87819841D01*
X140549965Y-87669673D01*
X140568371Y-87662068D01*
X141000551Y-87230643D01*
X141234733Y-86666670D01*
X141235265Y-86056009D01*
X141002068Y-85491629D01*
X140600818Y-85089677D01*
X141000551Y-84690643D01*
X141234733Y-84126670D01*
X141235265Y-83516009D01*
X141002068Y-82951629D01*
X140600818Y-82549677D01*
X141000551Y-82150643D01*
X141234733Y-81586670D01*
X141235265Y-80976009D01*
X141002068Y-80411629D01*
X140600818Y-80009677D01*
X141000551Y-79610643D01*
X141234733Y-79046670D01*
X141235265Y-78436009D01*
X141002068Y-77871629D01*
X140600818Y-77469677D01*
X141000551Y-77070643D01*
X141234733Y-76506670D01*
X141235265Y-75896009D01*
X141002068Y-75331629D01*
X140600818Y-74929677D01*
X141000551Y-74530643D01*
X141234733Y-73966670D01*
X141234735Y-73963991D01*
X161024735Y-73963991D01*
X161257932Y-74528371D01*
X161659182Y-74930323D01*
X161259449Y-75329357D01*
X161025267Y-75893330D01*
X161024735Y-76503991D01*
X161257932Y-77068371D01*
X161659182Y-77470323D01*
X161259449Y-77869357D01*
X161025267Y-78433330D01*
X161024735Y-79043991D01*
X161257932Y-79608371D01*
X161659182Y-80010323D01*
X161259449Y-80409357D01*
X161025267Y-80973330D01*
X161024735Y-81583991D01*
X161257932Y-82148371D01*
X161659182Y-82550323D01*
X161259449Y-82949357D01*
X161025267Y-83513330D01*
X161024735Y-84123991D01*
X161257932Y-84688371D01*
X161659182Y-85090323D01*
X161259449Y-85489357D01*
X161025267Y-86053330D01*
X161024735Y-86663991D01*
X161257932Y-87228371D01*
X161659182Y-87630323D01*
X161259449Y-88029357D01*
X161025267Y-88593330D01*
X161024735Y-89203991D01*
X161257932Y-89768371D01*
X161659182Y-90170323D01*
X161259449Y-90569357D01*
X161025267Y-91133330D01*
X161024735Y-91743991D01*
X161257932Y-92308371D01*
X161689357Y-92740551D01*
X162253330Y-92974733D01*
X162863991Y-92975265D01*
X163428371Y-92742068D01*
X163860551Y-92310643D01*
X163906494Y-92200000D01*
X177800000Y-92200000D01*
X178090839Y-92142148D01*
X178337401Y-91977401D01*
X179580000Y-90734802D01*
X179580000Y-94856560D01*
X179476400Y-94856560D01*
X179241083Y-94900838D01*
X179024959Y-95039910D01*
X178879969Y-95252110D01*
X178860768Y-95346927D01*
X178702036Y-95169268D01*
X178174791Y-94915291D01*
X178159026Y-94912642D01*
X177927000Y-95033783D01*
X177927000Y-96393000D01*
X177947000Y-96393000D01*
X177947000Y-96647000D01*
X177927000Y-96647000D01*
X177927000Y-98006217D01*
X178159026Y-98127358D01*
X178174791Y-98124709D01*
X178702036Y-97870732D01*
X178858907Y-97695155D01*
X178873238Y-97771317D01*
X179012310Y-97987441D01*
X179224510Y-98132431D01*
X179476400Y-98183440D01*
X181203600Y-98183440D01*
X181438917Y-98139162D01*
X181655041Y-98000090D01*
X181800031Y-97787890D01*
X181851040Y-97536000D01*
X181851040Y-95504000D01*
X181806762Y-95268683D01*
X181667690Y-95052559D01*
X181455490Y-94907569D01*
X181203600Y-94856560D01*
X181100000Y-94856560D01*
X181100000Y-90280998D01*
X181213277Y-90205309D01*
X181480991Y-89804646D01*
X181575000Y-89332032D01*
X181575000Y-88467968D01*
X181480991Y-87995354D01*
X181213277Y-87594691D01*
X180812614Y-87326977D01*
X180340000Y-87232968D01*
X179867386Y-87326977D01*
X179466723Y-87594691D01*
X179199009Y-87995354D01*
X179105000Y-88467968D01*
X179105000Y-89060198D01*
X179035000Y-89130198D01*
X179035000Y-88467968D01*
X178940991Y-87995354D01*
X178673277Y-87594691D01*
X178272614Y-87326977D01*
X177800000Y-87232968D01*
X177327386Y-87326977D01*
X176926723Y-87594691D01*
X176659009Y-87995354D01*
X176565000Y-88467968D01*
X176565000Y-89332032D01*
X176659009Y-89804646D01*
X176926723Y-90205309D01*
X177327386Y-90473023D01*
X177631652Y-90533546D01*
X177485198Y-90680000D01*
X163906846Y-90680000D01*
X163862068Y-90571629D01*
X163460818Y-90169677D01*
X163860551Y-89770643D01*
X164094733Y-89206670D01*
X164094889Y-89027000D01*
X168945000Y-89027000D01*
X168945000Y-89427000D01*
X169087610Y-89889947D01*
X169396526Y-90263080D01*
X169824719Y-90489592D01*
X169862391Y-90493462D01*
X170053000Y-90368731D01*
X170053000Y-89027000D01*
X170307000Y-89027000D01*
X170307000Y-90368731D01*
X170497609Y-90493462D01*
X170535281Y-90489592D01*
X170963474Y-90263080D01*
X171272390Y-89889947D01*
X171415000Y-89427000D01*
X171415000Y-89027000D01*
X171485000Y-89027000D01*
X171485000Y-89427000D01*
X171627610Y-89889947D01*
X171936526Y-90263080D01*
X172364719Y-90489592D01*
X172402391Y-90493462D01*
X172593000Y-90368731D01*
X172593000Y-89027000D01*
X172847000Y-89027000D01*
X172847000Y-90368731D01*
X173037609Y-90493462D01*
X173075281Y-90489592D01*
X173503474Y-90263080D01*
X173812390Y-89889947D01*
X173955000Y-89427000D01*
X173955000Y-89027000D01*
X172847000Y-89027000D01*
X172593000Y-89027000D01*
X171485000Y-89027000D01*
X171415000Y-89027000D01*
X170307000Y-89027000D01*
X170053000Y-89027000D01*
X168945000Y-89027000D01*
X164094889Y-89027000D01*
X164095265Y-88596009D01*
X164003120Y-88373000D01*
X168945000Y-88373000D01*
X168945000Y-88773000D01*
X170053000Y-88773000D01*
X170053000Y-87431269D01*
X170307000Y-87431269D01*
X170307000Y-88773000D01*
X171415000Y-88773000D01*
X171415000Y-88373000D01*
X171485000Y-88373000D01*
X171485000Y-88773000D01*
X172593000Y-88773000D01*
X172593000Y-87431269D01*
X172847000Y-87431269D01*
X172847000Y-88773000D01*
X173955000Y-88773000D01*
X173955000Y-88467968D01*
X174025000Y-88467968D01*
X174025000Y-89332032D01*
X174119009Y-89804646D01*
X174386723Y-90205309D01*
X174787386Y-90473023D01*
X175260000Y-90567032D01*
X175732614Y-90473023D01*
X176133277Y-90205309D01*
X176400991Y-89804646D01*
X176495000Y-89332032D01*
X176495000Y-88467968D01*
X176400991Y-87995354D01*
X176133277Y-87594691D01*
X175732614Y-87326977D01*
X175260000Y-87232968D01*
X174787386Y-87326977D01*
X174386723Y-87594691D01*
X174119009Y-87995354D01*
X174025000Y-88467968D01*
X173955000Y-88467968D01*
X173955000Y-88373000D01*
X173812390Y-87910053D01*
X173503474Y-87536920D01*
X173075281Y-87310408D01*
X173037609Y-87306538D01*
X172847000Y-87431269D01*
X172593000Y-87431269D01*
X172402391Y-87306538D01*
X172364719Y-87310408D01*
X171936526Y-87536920D01*
X171627610Y-87910053D01*
X171485000Y-88373000D01*
X171415000Y-88373000D01*
X171272390Y-87910053D01*
X170963474Y-87536920D01*
X170535281Y-87310408D01*
X170497609Y-87306538D01*
X170307000Y-87431269D01*
X170053000Y-87431269D01*
X169862391Y-87306538D01*
X169824719Y-87310408D01*
X169396526Y-87536920D01*
X169087610Y-87910053D01*
X168945000Y-88373000D01*
X164003120Y-88373000D01*
X163862068Y-88031629D01*
X163460818Y-87629677D01*
X163860551Y-87230643D01*
X164094733Y-86666670D01*
X164095265Y-86056009D01*
X163862068Y-85491629D01*
X163460818Y-85089677D01*
X163860551Y-84690643D01*
X164094733Y-84126670D01*
X164095265Y-83516009D01*
X163862068Y-82951629D01*
X163460818Y-82549677D01*
X163860551Y-82150643D01*
X164094733Y-81586670D01*
X164095265Y-80976009D01*
X163862068Y-80411629D01*
X163460818Y-80009677D01*
X163860551Y-79610643D01*
X164094733Y-79046670D01*
X164095265Y-78436009D01*
X163862068Y-77871629D01*
X163460818Y-77469677D01*
X163860551Y-77070643D01*
X164094733Y-76506670D01*
X164095265Y-75896009D01*
X163862068Y-75331629D01*
X163460818Y-74929677D01*
X163860551Y-74530643D01*
X164094733Y-73966670D01*
X164095265Y-73356009D01*
X163862068Y-72791629D01*
X163430643Y-72359449D01*
X162866670Y-72125267D01*
X162256009Y-72124735D01*
X161691629Y-72357932D01*
X161259449Y-72789357D01*
X161025267Y-73353330D01*
X161024735Y-73963991D01*
X141234735Y-73963991D01*
X141235265Y-73356009D01*
X141002068Y-72791629D01*
X140570643Y-72359449D01*
X140006670Y-72125267D01*
X139396009Y-72124735D01*
X138831629Y-72357932D01*
X138557000Y-72632081D01*
X138557000Y-62088957D01*
X138986950Y-63129515D01*
X140064811Y-64209259D01*
X141473825Y-64794333D01*
X142999482Y-64795664D01*
X144409515Y-64213050D01*
X145489259Y-63135189D01*
X146074333Y-61726175D01*
X146075664Y-60200518D01*
X145493050Y-58790485D01*
X144415189Y-57710741D01*
X143370625Y-57277000D01*
X179211043Y-57277000D01*
X178170485Y-57706950D01*
M02*
