M48
;DRILL file {KiCad 4.0.5+dfsg1-4} date Sat Jun 23 00:36:04 2018
;FORMAT={2:4/ absolute / inch / suppress leading zeros}
FMAT,2
INCH,TZ
T1C0.016
T2C0.030
T3C0.031
T4C0.035
T5C0.039
T6C0.040
T7C0.043
T8C0.051
T9C0.126
%
G90
G05
M72
T1
X26600Y-53400
X27000Y-36800
X27200Y-49900
X27200Y-50500
X34400Y-37400
X36050Y-40800
X36050Y-49650
X38600Y-37800
X42100Y-49000
X42600Y-52200
X44000Y-42500
X45000Y-45400
X46000Y-51800
X46750Y-47750
X47800Y-51200
X48500Y-51900
X48500Y-52500
X48900Y-39300
X49300Y-39000
X50000Y-40000
X52000Y-40200
X52200Y-42600
X54400Y-46000
X55000Y-40500
X55000Y-43200
X56000Y-40600
X56150Y-42200
X56500Y-37500
T2
X26787Y-28031
X26787Y-29031
X26787Y-30031
X26787Y-31031
X26787Y-32031
X26787Y-33031
X26787Y-34031
T3
X42150Y-38350
X42150Y-41350
X43150Y-38350
X43150Y-41350
X44150Y-38350
X44150Y-41350
X45150Y-38350
X45150Y-41350
X46150Y-38350
X46150Y-41350
X47150Y-38350
X47150Y-41350
X47625Y-43175
X47625Y-44175
X47625Y-45325
X47625Y-46325
X47625Y-47175
X47625Y-48175
X47625Y-49325
X47625Y-50325
X48150Y-38350
X48150Y-41350
X48625Y-43175
X48625Y-44175
X48625Y-45325
X48625Y-46325
X48625Y-47175
X48625Y-48175
X48625Y-49325
X48625Y-50325
X49150Y-38350
X49150Y-41350
X49625Y-43175
X49625Y-44175
X49625Y-45325
X49625Y-46325
X49625Y-47175
X49625Y-48175
X49625Y-49325
X49625Y-50325
X50150Y-38350
X50150Y-41350
X50625Y-43175
X50625Y-44175
X50625Y-45325
X50625Y-46325
X50625Y-47175
X50625Y-48175
X50625Y-49325
X50625Y-50325
X51150Y-38350
X51150Y-41350
X51625Y-43175
X51625Y-44175
X51625Y-45325
X51625Y-46325
X51625Y-47175
X51625Y-48175
X51625Y-49325
X51625Y-50325
X52150Y-38350
X52150Y-41350
X52625Y-43175
X52625Y-44175
X52625Y-45325
X52625Y-46325
X52625Y-47175
X52625Y-48175
X52625Y-49325
X52625Y-50325
X53150Y-38350
X53150Y-41350
X53625Y-43175
X53625Y-44175
X53625Y-45325
X53625Y-46325
X53625Y-47175
X53625Y-48175
X53625Y-49325
X53625Y-50325
X54150Y-38350
X54150Y-41350
X55150Y-38350
X55150Y-41350
T4
X28750Y-47750
X29750Y-47750
X32000Y-43250
X32000Y-52750
X33000Y-43250
X33000Y-52750
X61000Y-32000
X61000Y-33000
X61000Y-37500
X61000Y-38500
X61000Y-44000
X61000Y-45000
X61000Y-48000
X61000Y-49000
X61000Y-50000
X61000Y-51000
T5
X61000Y-29228
X61000Y-31000
X61000Y-34728
X61000Y-36500
X61000Y-40728
X61000Y-42500
T6
X28600Y-28200
X28600Y-29200
X28600Y-30200
X28600Y-31200
X28600Y-32200
X28600Y-33200
X28600Y-34200
X28600Y-35200
X37600Y-28200
X37600Y-29200
X37600Y-30200
X37600Y-31200
X37600Y-32200
X37600Y-33200
X37600Y-34200
X37600Y-35200
X38000Y-54000
X39000Y-54000
X40000Y-54000
X41000Y-54000
X42000Y-54000
X44000Y-54000
X45000Y-54000
X47000Y-54000
X48000Y-54000
X49000Y-54000
X50000Y-54000
X51000Y-54000
T7
X28000Y-42250
X28000Y-44022
X28000Y-51750
X28000Y-53522
X30559Y-42250
X30559Y-44022
X30559Y-51750
X30559Y-53522
X42000Y-27500
X42000Y-29272
X42000Y-33000
X42000Y-34772
X44559Y-27500
X44559Y-29272
X44559Y-33000
X44559Y-34772
X54500Y-27500
X54500Y-29272
X57059Y-27500
X57059Y-29272
T8
X60020Y-28732
X60020Y-31492
X60020Y-34232
X60020Y-36992
X60020Y-40232
X60020Y-42992
T9
X24250Y-25750
X24500Y-53000
X60000Y-25750
X60000Y-53000
T0
M30
