G04 #@! TF.FileFunction,Legend,Bot*
%FSLAX46Y46*%
G04 Gerber Fmt 4.6, Leading zero omitted, Abs format (unit mm)*
G04 Created by KiCad (PCBNEW 4.0.5+dfsg1-4) date Sat Jun 23 00:33:45 2018*
%MOMM*%
%LPD*%
G01*
G04 APERTURE LIST*
%ADD10C,0.100000*%
%ADD11C,0.300000*%
%ADD12C,0.150000*%
%ADD13C,0.120000*%
G04 APERTURE END LIST*
D10*
D11*
X126166428Y-62538571D02*
X125809285Y-63538571D01*
X125452143Y-62538571D01*
X124952143Y-62181429D02*
X124880714Y-62110000D01*
X124737857Y-62038571D01*
X124380714Y-62038571D01*
X124237857Y-62110000D01*
X124166428Y-62181429D01*
X124095000Y-62324286D01*
X124095000Y-62467143D01*
X124166428Y-62681429D01*
X125023571Y-63538571D01*
X124095000Y-63538571D01*
X147202142Y-66088571D02*
X147202142Y-64588571D01*
X146702142Y-65660000D01*
X146202142Y-64588571D01*
X146202142Y-66088571D01*
X144844999Y-66088571D02*
X144844999Y-65302857D01*
X144916428Y-65160000D01*
X145059285Y-65088571D01*
X145344999Y-65088571D01*
X145487856Y-65160000D01*
X144844999Y-66017143D02*
X144987856Y-66088571D01*
X145344999Y-66088571D01*
X145487856Y-66017143D01*
X145559285Y-65874286D01*
X145559285Y-65731429D01*
X145487856Y-65588571D01*
X145344999Y-65517143D01*
X144987856Y-65517143D01*
X144844999Y-65445714D01*
X144130713Y-66088571D02*
X144130713Y-65088571D01*
X144130713Y-65374286D02*
X144059285Y-65231429D01*
X143987856Y-65160000D01*
X143844999Y-65088571D01*
X143702142Y-65088571D01*
X143202142Y-66088571D02*
X143202142Y-64588571D01*
X143059285Y-65517143D02*
X142630714Y-66088571D01*
X142630714Y-65088571D02*
X143202142Y-65660000D01*
X140344999Y-65302857D02*
X140844999Y-65302857D01*
X140844999Y-66088571D02*
X140844999Y-64588571D01*
X140130713Y-64588571D01*
X138916428Y-65088571D02*
X138916428Y-66088571D01*
X139559285Y-65088571D02*
X139559285Y-65874286D01*
X139487857Y-66017143D01*
X139344999Y-66088571D01*
X139130714Y-66088571D01*
X138987857Y-66017143D01*
X138916428Y-65945714D01*
X138202142Y-66088571D02*
X138202142Y-65088571D01*
X138202142Y-65374286D02*
X138130714Y-65231429D01*
X138059285Y-65160000D01*
X137916428Y-65088571D01*
X137773571Y-65088571D01*
X137059285Y-66088571D02*
X137202143Y-66017143D01*
X137273571Y-65874286D01*
X137273571Y-64588571D01*
X135845000Y-66088571D02*
X135845000Y-65302857D01*
X135916429Y-65160000D01*
X136059286Y-65088571D01*
X136345000Y-65088571D01*
X136487857Y-65160000D01*
X135845000Y-66017143D02*
X135987857Y-66088571D01*
X136345000Y-66088571D01*
X136487857Y-66017143D01*
X136559286Y-65874286D01*
X136559286Y-65731429D01*
X136487857Y-65588571D01*
X136345000Y-65517143D01*
X135987857Y-65517143D01*
X135845000Y-65445714D01*
X135130714Y-65088571D02*
X135130714Y-66088571D01*
X135130714Y-65231429D02*
X135059286Y-65160000D01*
X134916428Y-65088571D01*
X134702143Y-65088571D01*
X134559286Y-65160000D01*
X134487857Y-65302857D01*
X134487857Y-66088571D01*
X133130714Y-66088571D02*
X133130714Y-64588571D01*
X133130714Y-66017143D02*
X133273571Y-66088571D01*
X133559285Y-66088571D01*
X133702143Y-66017143D01*
X133773571Y-65945714D01*
X133845000Y-65802857D01*
X133845000Y-65374286D01*
X133773571Y-65231429D01*
X133702143Y-65160000D01*
X133559285Y-65088571D01*
X133273571Y-65088571D01*
X133130714Y-65160000D01*
X130130714Y-65088571D02*
X131273571Y-65517143D01*
X130130714Y-65945714D01*
X129416428Y-66088571D02*
X129416428Y-65088571D01*
X129416428Y-65231429D02*
X129345000Y-65160000D01*
X129202142Y-65088571D01*
X128987857Y-65088571D01*
X128845000Y-65160000D01*
X128773571Y-65302857D01*
X128773571Y-66088571D01*
X128773571Y-65302857D02*
X128702142Y-65160000D01*
X128559285Y-65088571D01*
X128345000Y-65088571D01*
X128202142Y-65160000D01*
X128130714Y-65302857D01*
X128130714Y-66088571D01*
X127630714Y-65088571D02*
X127059285Y-65088571D01*
X127416428Y-64588571D02*
X127416428Y-65874286D01*
X127345000Y-66017143D01*
X127202142Y-66088571D01*
X127059285Y-66088571D01*
X126773571Y-65088571D02*
X126202142Y-65088571D01*
X126559285Y-66088571D02*
X126559285Y-64802857D01*
X126487857Y-64660000D01*
X126344999Y-64588571D01*
X126202142Y-64588571D01*
X125059285Y-65088571D02*
X125059285Y-66088571D01*
X125702142Y-65088571D02*
X125702142Y-65874286D01*
X125630714Y-66017143D01*
X125487856Y-66088571D01*
X125273571Y-66088571D01*
X125130714Y-66017143D01*
X125059285Y-65945714D01*
X124344999Y-66088571D02*
X124344999Y-65088571D01*
X124344999Y-65374286D02*
X124273571Y-65231429D01*
X124202142Y-65160000D01*
X124059285Y-65088571D01*
X123916428Y-65088571D01*
X123202142Y-66088571D02*
X123345000Y-66017143D01*
X123416428Y-65874286D01*
X123416428Y-64588571D01*
X121987857Y-66088571D02*
X121987857Y-65302857D01*
X122059286Y-65160000D01*
X122202143Y-65088571D01*
X122487857Y-65088571D01*
X122630714Y-65160000D01*
X121987857Y-66017143D02*
X122130714Y-66088571D01*
X122487857Y-66088571D01*
X122630714Y-66017143D01*
X122702143Y-65874286D01*
X122702143Y-65731429D01*
X122630714Y-65588571D01*
X122487857Y-65517143D01*
X122130714Y-65517143D01*
X121987857Y-65445714D01*
X121273571Y-65088571D02*
X121273571Y-66088571D01*
X121273571Y-65231429D02*
X121202143Y-65160000D01*
X121059285Y-65088571D01*
X120845000Y-65088571D01*
X120702143Y-65160000D01*
X120630714Y-65302857D01*
X120630714Y-66088571D01*
X118987857Y-65374286D02*
X119059285Y-65302857D01*
X119202142Y-65231429D01*
X119345000Y-65231429D01*
X119487857Y-65302857D01*
X119559285Y-65374286D01*
X119630714Y-65517143D01*
X119630714Y-65660000D01*
X119559285Y-65802857D01*
X119487857Y-65874286D01*
X119345000Y-65945714D01*
X119202142Y-65945714D01*
X119059285Y-65874286D01*
X118987857Y-65802857D01*
X118987857Y-65231429D02*
X118987857Y-65802857D01*
X118916428Y-65874286D01*
X118845000Y-65874286D01*
X118702142Y-65802857D01*
X118630714Y-65660000D01*
X118630714Y-65302857D01*
X118773571Y-65088571D01*
X118987857Y-64945714D01*
X119273571Y-64874286D01*
X119559285Y-64945714D01*
X119773571Y-65088571D01*
X119916428Y-65302857D01*
X119987857Y-65588571D01*
X119916428Y-65874286D01*
X119773571Y-66088571D01*
X119559285Y-66231429D01*
X119273571Y-66302857D01*
X118987857Y-66231429D01*
X118773571Y-66088571D01*
X117987857Y-66088571D02*
X117987857Y-65088571D01*
X117987857Y-64588571D02*
X118059286Y-64660000D01*
X117987857Y-64731429D01*
X117916429Y-64660000D01*
X117987857Y-64588571D01*
X117987857Y-64731429D01*
X117416428Y-64588571D02*
X116487857Y-64588571D01*
X116987857Y-65160000D01*
X116773571Y-65160000D01*
X116630714Y-65231429D01*
X116559285Y-65302857D01*
X116487857Y-65445714D01*
X116487857Y-65802857D01*
X116559285Y-65945714D01*
X116630714Y-66017143D01*
X116773571Y-66088571D01*
X117202143Y-66088571D01*
X117345000Y-66017143D01*
X117416428Y-65945714D01*
X115202143Y-66088571D02*
X115202143Y-64588571D01*
X115202143Y-66017143D02*
X115345000Y-66088571D01*
X115630714Y-66088571D01*
X115773572Y-66017143D01*
X115845000Y-65945714D01*
X115916429Y-65802857D01*
X115916429Y-65374286D01*
X115845000Y-65231429D01*
X115773572Y-65160000D01*
X115630714Y-65088571D01*
X115345000Y-65088571D01*
X115202143Y-65160000D01*
X113916429Y-66017143D02*
X114059286Y-66088571D01*
X114345000Y-66088571D01*
X114487857Y-66017143D01*
X114559286Y-65874286D01*
X114559286Y-65302857D01*
X114487857Y-65160000D01*
X114345000Y-65088571D01*
X114059286Y-65088571D01*
X113916429Y-65160000D01*
X113845000Y-65302857D01*
X113845000Y-65445714D01*
X114559286Y-65588571D01*
X113416429Y-65088571D02*
X112845000Y-65088571D01*
X113202143Y-64588571D02*
X113202143Y-65874286D01*
X113130715Y-66017143D01*
X112987857Y-66088571D01*
X112845000Y-66088571D01*
X112345000Y-66088571D02*
X112345000Y-65088571D01*
X112345000Y-65374286D02*
X112273572Y-65231429D01*
X112202143Y-65160000D01*
X112059286Y-65088571D01*
X111916429Y-65088571D01*
X111202143Y-66088571D02*
X111345001Y-66017143D01*
X111416429Y-65945714D01*
X111487858Y-65802857D01*
X111487858Y-65374286D01*
X111416429Y-65231429D01*
X111345001Y-65160000D01*
X111202143Y-65088571D01*
X110987858Y-65088571D01*
X110845001Y-65160000D01*
X110773572Y-65231429D01*
X110702143Y-65374286D01*
X110702143Y-65802857D01*
X110773572Y-65945714D01*
X110845001Y-66017143D01*
X110987858Y-66088571D01*
X111202143Y-66088571D01*
X110059286Y-66088571D02*
X110059286Y-65088571D01*
X110059286Y-64588571D02*
X110130715Y-64660000D01*
X110059286Y-64731429D01*
X109987858Y-64660000D01*
X110059286Y-64588571D01*
X110059286Y-64731429D01*
X109559286Y-65088571D02*
X108987857Y-65088571D01*
X109345000Y-64588571D02*
X109345000Y-65874286D01*
X109273572Y-66017143D01*
X109130714Y-66088571D01*
X108987857Y-66088571D01*
X108487857Y-65945714D02*
X108416429Y-66017143D01*
X108487857Y-66088571D01*
X108559286Y-66017143D01*
X108487857Y-65945714D01*
X108487857Y-66088571D01*
X107559285Y-66088571D02*
X107702143Y-66017143D01*
X107773571Y-65945714D01*
X107845000Y-65802857D01*
X107845000Y-65374286D01*
X107773571Y-65231429D01*
X107702143Y-65160000D01*
X107559285Y-65088571D01*
X107345000Y-65088571D01*
X107202143Y-65160000D01*
X107130714Y-65231429D01*
X107059285Y-65374286D01*
X107059285Y-65802857D01*
X107130714Y-65945714D01*
X107202143Y-66017143D01*
X107345000Y-66088571D01*
X107559285Y-66088571D01*
X106416428Y-66088571D02*
X106416428Y-65088571D01*
X106416428Y-65374286D02*
X106345000Y-65231429D01*
X106273571Y-65160000D01*
X106130714Y-65088571D01*
X105987857Y-65088571D01*
X104845000Y-65088571D02*
X104845000Y-66302857D01*
X104916429Y-66445714D01*
X104987857Y-66517143D01*
X105130714Y-66588571D01*
X105345000Y-66588571D01*
X105487857Y-66517143D01*
X104845000Y-66017143D02*
X104987857Y-66088571D01*
X105273571Y-66088571D01*
X105416429Y-66017143D01*
X105487857Y-65945714D01*
X105559286Y-65802857D01*
X105559286Y-65374286D01*
X105487857Y-65231429D01*
X105416429Y-65160000D01*
X105273571Y-65088571D01*
X104987857Y-65088571D01*
X104845000Y-65160000D01*
X104130714Y-65088571D02*
X102987857Y-65517143D01*
X104130714Y-65945714D01*
D12*
X77724000Y-85598000D02*
X77724000Y-71628000D01*
X77724000Y-71628000D02*
X90424000Y-71628000D01*
X90424000Y-71628000D02*
X90424000Y-85598000D01*
X90424000Y-85598000D02*
X77724000Y-85598000D01*
X75184000Y-86868000D02*
X92964000Y-86868000D01*
X92964000Y-86868000D02*
X92964000Y-64008000D01*
X92964000Y-64008000D02*
X75184000Y-64008000D01*
X75184000Y-64008000D02*
X75184000Y-86868000D01*
D13*
X105731000Y-102219000D02*
G75*
G03X105731000Y-100219000I0J1000000D01*
G01*
X105731000Y-100219000D02*
X105731000Y-98569000D01*
X105731000Y-98569000D02*
X141411000Y-98569000D01*
X141411000Y-98569000D02*
X141411000Y-103869000D01*
X141411000Y-103869000D02*
X105731000Y-103869000D01*
X105731000Y-103869000D02*
X105731000Y-102219000D01*
D12*
X65270000Y-83145000D02*
X64270000Y-83145000D01*
X64270000Y-84495000D02*
X65270000Y-84495000D01*
X64166000Y-86960000D02*
X64866000Y-86960000D01*
X64866000Y-85760000D02*
X64166000Y-85760000D01*
X156210000Y-109347000D02*
X156210000Y-102050000D01*
X156210000Y-102050000D02*
X153640000Y-102050000D01*
X151910000Y-107950000D02*
X151910000Y-103450000D01*
X156210000Y-109347000D02*
X153640000Y-109347000D01*
X156210000Y-80137000D02*
X156210000Y-72840000D01*
X156210000Y-72840000D02*
X153640000Y-72840000D01*
X151910000Y-78740000D02*
X151910000Y-74240000D01*
X156210000Y-80137000D02*
X153640000Y-80137000D01*
X156210000Y-94107000D02*
X156210000Y-86810000D01*
X156210000Y-86810000D02*
X153640000Y-86810000D01*
X151910000Y-92710000D02*
X151910000Y-88210000D01*
X156210000Y-94107000D02*
X153640000Y-94107000D01*
X118672500Y-112339500D02*
X119942500Y-112339500D01*
X118672500Y-119689500D02*
X119942500Y-119689500D01*
X138502500Y-119689500D02*
X137232500Y-119689500D01*
X138502500Y-112339500D02*
X137232500Y-112339500D01*
X118672500Y-112339500D02*
X118672500Y-119689500D01*
X138502500Y-112339500D02*
X138502500Y-119689500D01*
X119942500Y-112339500D02*
X119942500Y-111404500D01*
X105243381Y-100457095D02*
X106052905Y-100457095D01*
X106148143Y-100504714D01*
X106195762Y-100552333D01*
X106243381Y-100647571D01*
X106243381Y-100838048D01*
X106195762Y-100933286D01*
X106148143Y-100980905D01*
X106052905Y-101028524D01*
X105243381Y-101028524D01*
X105243381Y-101409476D02*
X105243381Y-102028524D01*
X105624333Y-101695190D01*
X105624333Y-101838048D01*
X105671952Y-101933286D01*
X105719571Y-101980905D01*
X105814810Y-102028524D01*
X106052905Y-102028524D01*
X106148143Y-101980905D01*
X106195762Y-101933286D01*
X106243381Y-101838048D01*
X106243381Y-101552333D01*
X106195762Y-101457095D01*
X106148143Y-101409476D01*
X64936666Y-86172381D02*
X65270000Y-85696190D01*
X65508095Y-86172381D02*
X65508095Y-85172381D01*
X65127142Y-85172381D01*
X65031904Y-85220000D01*
X64984285Y-85267619D01*
X64936666Y-85362857D01*
X64936666Y-85505714D01*
X64984285Y-85600952D01*
X65031904Y-85648571D01*
X65127142Y-85696190D01*
X65508095Y-85696190D01*
X63984285Y-86172381D02*
X64555714Y-86172381D01*
X64270000Y-86172381D02*
X64270000Y-85172381D01*
X64365238Y-85315238D01*
X64460476Y-85410476D01*
X64555714Y-85458095D01*
X64682666Y-88617143D02*
X64730285Y-88664762D01*
X64873142Y-88712381D01*
X64968380Y-88712381D01*
X65111238Y-88664762D01*
X65206476Y-88569524D01*
X65254095Y-88474286D01*
X65301714Y-88283810D01*
X65301714Y-88140952D01*
X65254095Y-87950476D01*
X65206476Y-87855238D01*
X65111238Y-87760000D01*
X64968380Y-87712381D01*
X64873142Y-87712381D01*
X64730285Y-87760000D01*
X64682666Y-87807619D01*
X63730285Y-88712381D02*
X64301714Y-88712381D01*
X64016000Y-88712381D02*
X64016000Y-87712381D01*
X64111238Y-87855238D01*
X64206476Y-87950476D01*
X64301714Y-87998095D01*
X150647143Y-103830953D02*
X150694762Y-103783334D01*
X150742381Y-103640477D01*
X150742381Y-103545239D01*
X150694762Y-103402381D01*
X150599524Y-103307143D01*
X150504286Y-103259524D01*
X150313810Y-103211905D01*
X150170952Y-103211905D01*
X149980476Y-103259524D01*
X149885238Y-103307143D01*
X149790000Y-103402381D01*
X149742381Y-103545239D01*
X149742381Y-103640477D01*
X149790000Y-103783334D01*
X149837619Y-103830953D01*
X149742381Y-104450000D02*
X149742381Y-104640477D01*
X149790000Y-104735715D01*
X149885238Y-104830953D01*
X150075714Y-104878572D01*
X150409048Y-104878572D01*
X150599524Y-104830953D01*
X150694762Y-104735715D01*
X150742381Y-104640477D01*
X150742381Y-104450000D01*
X150694762Y-104354762D01*
X150599524Y-104259524D01*
X150409048Y-104211905D01*
X150075714Y-104211905D01*
X149885238Y-104259524D01*
X149790000Y-104354762D01*
X149742381Y-104450000D01*
X149742381Y-105497619D02*
X149742381Y-105688096D01*
X149790000Y-105783334D01*
X149885238Y-105878572D01*
X150075714Y-105926191D01*
X150409048Y-105926191D01*
X150599524Y-105878572D01*
X150694762Y-105783334D01*
X150742381Y-105688096D01*
X150742381Y-105497619D01*
X150694762Y-105402381D01*
X150599524Y-105307143D01*
X150409048Y-105259524D01*
X150075714Y-105259524D01*
X149885238Y-105307143D01*
X149790000Y-105402381D01*
X149742381Y-105497619D01*
X150742381Y-106830953D02*
X150742381Y-106354762D01*
X149742381Y-106354762D01*
X149837619Y-107116667D02*
X149790000Y-107164286D01*
X149742381Y-107259524D01*
X149742381Y-107497620D01*
X149790000Y-107592858D01*
X149837619Y-107640477D01*
X149932857Y-107688096D01*
X150028095Y-107688096D01*
X150170952Y-107640477D01*
X150742381Y-107069048D01*
X150742381Y-107688096D01*
X150742381Y-74216190D02*
X149742381Y-74216190D01*
X150218571Y-74216190D02*
X150218571Y-74787619D01*
X150742381Y-74787619D02*
X149742381Y-74787619D01*
X150218571Y-75263809D02*
X150218571Y-75597143D01*
X150742381Y-75740000D02*
X150742381Y-75263809D01*
X149742381Y-75263809D01*
X149742381Y-75740000D01*
X150456667Y-76120952D02*
X150456667Y-76597143D01*
X150742381Y-76025714D02*
X149742381Y-76359047D01*
X150742381Y-76692381D01*
X149742381Y-76882857D02*
X149742381Y-77454286D01*
X150742381Y-77168571D02*
X149742381Y-77168571D01*
X149837619Y-77740000D02*
X149790000Y-77787619D01*
X149742381Y-77882857D01*
X149742381Y-78120953D01*
X149790000Y-78216191D01*
X149837619Y-78263810D01*
X149932857Y-78311429D01*
X150028095Y-78311429D01*
X150170952Y-78263810D01*
X150742381Y-77692381D01*
X150742381Y-78311429D01*
X149742381Y-88781428D02*
X149742381Y-88971905D01*
X149790000Y-89067143D01*
X149885238Y-89162381D01*
X150075714Y-89210000D01*
X150409048Y-89210000D01*
X150599524Y-89162381D01*
X150694762Y-89067143D01*
X150742381Y-88971905D01*
X150742381Y-88781428D01*
X150694762Y-88686190D01*
X150599524Y-88590952D01*
X150409048Y-88543333D01*
X150075714Y-88543333D01*
X149885238Y-88590952D01*
X149790000Y-88686190D01*
X149742381Y-88781428D01*
X150218571Y-89971905D02*
X150218571Y-89638571D01*
X150742381Y-89638571D02*
X149742381Y-89638571D01*
X149742381Y-90114762D01*
X150218571Y-90829048D02*
X150218571Y-90495714D01*
X150742381Y-90495714D02*
X149742381Y-90495714D01*
X149742381Y-90971905D01*
X149837619Y-91305238D02*
X149790000Y-91352857D01*
X149742381Y-91448095D01*
X149742381Y-91686191D01*
X149790000Y-91781429D01*
X149837619Y-91829048D01*
X149932857Y-91876667D01*
X150028095Y-91876667D01*
X150170952Y-91829048D01*
X150742381Y-91257619D01*
X150742381Y-91876667D01*
X115199881Y-111442595D02*
X116009405Y-111442595D01*
X116104643Y-111490214D01*
X116152262Y-111537833D01*
X116199881Y-111633071D01*
X116199881Y-111823548D01*
X116152262Y-111918786D01*
X116104643Y-111966405D01*
X116009405Y-112014024D01*
X115199881Y-112014024D01*
X116199881Y-113014024D02*
X116199881Y-112442595D01*
X116199881Y-112728309D02*
X115199881Y-112728309D01*
X115342738Y-112633071D01*
X115437976Y-112537833D01*
X115485595Y-112442595D01*
M02*
