G04 #@! TF.FileFunction,Legend,Top*
%FSLAX46Y46*%
G04 Gerber Fmt 4.6, Leading zero omitted, Abs format (unit mm)*
G04 Created by KiCad (PCBNEW 4.0.5+dfsg1-4) date Sat Jun 23 00:33:45 2018*
%MOMM*%
%LPD*%
G01*
G04 APERTURE LIST*
%ADD10C,0.100000*%
%ADD11C,0.300000*%
%ADD12C,0.150000*%
%ADD13C,0.120000*%
G04 APERTURE END LIST*
D10*
D11*
X121265715Y-88943571D02*
X121265715Y-87943571D01*
X121265715Y-87443571D02*
X121194286Y-87515000D01*
X121265715Y-87586429D01*
X121337143Y-87515000D01*
X121265715Y-87443571D01*
X121265715Y-87586429D01*
X121837144Y-87443571D02*
X122765715Y-87443571D01*
X122265715Y-88015000D01*
X122480001Y-88015000D01*
X122622858Y-88086429D01*
X122694287Y-88157857D01*
X122765715Y-88300714D01*
X122765715Y-88657857D01*
X122694287Y-88800714D01*
X122622858Y-88872143D01*
X122480001Y-88943571D01*
X122051429Y-88943571D01*
X121908572Y-88872143D01*
X121837144Y-88800714D01*
X123408572Y-88943571D02*
X123408572Y-87443571D01*
X123765715Y-87443571D01*
X123980000Y-87515000D01*
X124122858Y-87657857D01*
X124194286Y-87800714D01*
X124265715Y-88086429D01*
X124265715Y-88300714D01*
X124194286Y-88586429D01*
X124122858Y-88729286D01*
X123980000Y-88872143D01*
X123765715Y-88943571D01*
X123408572Y-88943571D01*
X125480000Y-88872143D02*
X125337143Y-88943571D01*
X125051429Y-88943571D01*
X124908572Y-88872143D01*
X124837143Y-88729286D01*
X124837143Y-88157857D01*
X124908572Y-88015000D01*
X125051429Y-87943571D01*
X125337143Y-87943571D01*
X125480000Y-88015000D01*
X125551429Y-88157857D01*
X125551429Y-88300714D01*
X124837143Y-88443571D01*
X125980000Y-87943571D02*
X126551429Y-87943571D01*
X126194286Y-87443571D02*
X126194286Y-88729286D01*
X126265714Y-88872143D01*
X126408572Y-88943571D01*
X126551429Y-88943571D01*
X127051429Y-88943571D02*
X127051429Y-87943571D01*
X127051429Y-88229286D02*
X127122857Y-88086429D01*
X127194286Y-88015000D01*
X127337143Y-87943571D01*
X127480000Y-87943571D01*
X128194286Y-88943571D02*
X128051428Y-88872143D01*
X127980000Y-88800714D01*
X127908571Y-88657857D01*
X127908571Y-88229286D01*
X127980000Y-88086429D01*
X128051428Y-88015000D01*
X128194286Y-87943571D01*
X128408571Y-87943571D01*
X128551428Y-88015000D01*
X128622857Y-88086429D01*
X128694286Y-88229286D01*
X128694286Y-88657857D01*
X128622857Y-88800714D01*
X128551428Y-88872143D01*
X128408571Y-88943571D01*
X128194286Y-88943571D01*
X129337143Y-88943571D02*
X129337143Y-87943571D01*
X129337143Y-87443571D02*
X129265714Y-87515000D01*
X129337143Y-87586429D01*
X129408571Y-87515000D01*
X129337143Y-87443571D01*
X129337143Y-87586429D01*
X129837143Y-87943571D02*
X130408572Y-87943571D01*
X130051429Y-87443571D02*
X130051429Y-88729286D01*
X130122857Y-88872143D01*
X130265715Y-88943571D01*
X130408572Y-88943571D01*
D12*
X138502500Y-117800500D02*
X137232500Y-117800500D01*
X138502500Y-125150500D02*
X137232500Y-125150500D01*
X118672500Y-125150500D02*
X119942500Y-125150500D01*
X118672500Y-117800500D02*
X119942500Y-117800500D01*
X138502500Y-117800500D02*
X138502500Y-125150500D01*
X118672500Y-117800500D02*
X118672500Y-125150500D01*
X137232500Y-117800500D02*
X137232500Y-116865500D01*
X99540000Y-61120000D02*
X99540000Y-71820000D01*
X99540000Y-96520000D02*
X99540000Y-85820000D01*
X99540000Y-85820000D02*
X95540000Y-85820000D01*
X95540000Y-85820000D02*
X95540000Y-71820000D01*
X95540000Y-71820000D02*
X99540000Y-71820000D01*
X98540000Y-94020000D02*
G75*
G03X98540000Y-94020000I-1500000J0D01*
G01*
X98540000Y-63620000D02*
G75*
G03X98540000Y-63620000I-1500000J0D01*
G01*
X70040000Y-63620000D02*
G75*
G03X70040000Y-63620000I-1500000J0D01*
G01*
X70040000Y-94020000D02*
G75*
G03X70040000Y-94020000I-1500000J0D01*
G01*
X99540000Y-61120000D02*
X66040000Y-61120000D01*
X66040000Y-61120000D02*
X66040000Y-96520000D01*
X66040000Y-96520000D02*
X99540000Y-96520000D01*
D10*
X94891472Y-98065228D02*
X89080180Y-98065228D01*
X89080180Y-98065228D02*
X89053849Y-96781795D01*
X89053849Y-96781795D02*
X80222627Y-96788483D01*
X80222627Y-96788483D02*
X80224603Y-97990736D01*
X80224603Y-97990736D02*
X71143807Y-97964658D01*
X71143807Y-97964658D02*
X71157805Y-66794507D01*
X71157805Y-66794507D02*
X71390616Y-66191714D01*
X71390616Y-66191714D02*
X71674099Y-65646833D01*
X71674099Y-65646833D02*
X72008747Y-65160423D01*
X72008747Y-65160423D02*
X72395047Y-64733048D01*
X72395047Y-64733048D02*
X72833488Y-64365259D01*
X72833488Y-64365259D02*
X73324560Y-64057623D01*
X73324560Y-64057623D02*
X73868750Y-63810690D01*
X73868750Y-63810690D02*
X74466547Y-63625024D01*
X74466547Y-63625024D02*
X93504460Y-63596266D01*
X93504460Y-63596266D02*
X94123824Y-63830259D01*
X94123824Y-63830259D02*
X94712018Y-64114742D01*
X94712018Y-64114742D02*
X95255445Y-64464257D01*
X95255445Y-64464257D02*
X95740503Y-64893342D01*
X95740503Y-64893342D02*
X96153595Y-65416540D01*
X96153595Y-65416540D02*
X96481122Y-66048387D01*
X96481122Y-66048387D02*
X96709482Y-66803425D01*
X96709482Y-66803425D02*
X96825078Y-67696193D01*
X96825078Y-67696193D02*
X96850026Y-90251285D01*
X96850026Y-90251285D02*
X94906480Y-91212181D01*
X94906480Y-91212181D02*
X94876686Y-98020524D01*
X80894350Y-91839451D02*
X88033931Y-91839451D01*
X88033931Y-91839451D02*
X88033931Y-97653188D01*
X88033931Y-97653188D02*
X80894350Y-97653188D01*
X80894350Y-97653188D02*
X80894350Y-91839451D01*
X94817600Y-91190349D02*
X93265378Y-91190349D01*
X93265378Y-91190349D02*
X92736211Y-91719515D01*
X92736211Y-91719515D02*
X91483850Y-91719515D01*
X91483850Y-91719515D02*
X91483850Y-96781876D01*
X91483850Y-96781876D02*
X92771489Y-96781876D01*
X92771489Y-96781876D02*
X93300656Y-97275765D01*
X93300656Y-97275765D02*
X94870517Y-97275765D01*
X94870517Y-97275765D02*
X94817600Y-91190349D01*
X94852878Y-93271738D02*
X95505517Y-93271738D01*
X95505517Y-93271738D02*
X95505517Y-95264932D01*
X95505517Y-95264932D02*
X94888156Y-95264932D01*
D13*
X107680000Y-75350000D02*
X112180000Y-75350000D01*
X106430000Y-71350000D02*
X106430000Y-72850000D01*
X112180000Y-68850000D02*
X107680000Y-68850000D01*
X113430000Y-72850000D02*
X113430000Y-71350000D01*
X153861392Y-111357665D02*
G75*
G03X153704484Y-114590000I1078608J-1672335D01*
G01*
X156018608Y-111357665D02*
G75*
G02X156175516Y-114590000I-1078608J-1672335D01*
G01*
X153860163Y-111988870D02*
G75*
G03X153860000Y-114070961I1079837J-1041130D01*
G01*
X156019837Y-111988870D02*
G75*
G02X156020000Y-114070961I-1079837J-1041130D01*
G01*
X153704000Y-114590000D02*
X153860000Y-114590000D01*
X156020000Y-114590000D02*
X156176000Y-114590000D01*
X84222335Y-108776392D02*
G75*
G03X80990000Y-108619484I-1672335J-1078608D01*
G01*
X84222335Y-110933608D02*
G75*
G02X80990000Y-111090516I-1672335J1078608D01*
G01*
X83591130Y-108775163D02*
G75*
G03X81509039Y-108775000I-1041130J-1079837D01*
G01*
X83591130Y-110934837D02*
G75*
G02X81509039Y-110935000I-1041130J1079837D01*
G01*
X80990000Y-108619000D02*
X80990000Y-108775000D01*
X80990000Y-110935000D02*
X80990000Y-111091000D01*
X72120000Y-112815000D02*
X76620000Y-112815000D01*
X70870000Y-108815000D02*
X70870000Y-110315000D01*
X76620000Y-106315000D02*
X72120000Y-106315000D01*
X77870000Y-110315000D02*
X77870000Y-108815000D01*
X84222335Y-132906392D02*
G75*
G03X80990000Y-132749484I-1672335J-1078608D01*
G01*
X84222335Y-135063608D02*
G75*
G02X80990000Y-135220516I-1672335J1078608D01*
G01*
X83591130Y-132905163D02*
G75*
G03X81509039Y-132905000I-1041130J-1079837D01*
G01*
X83591130Y-135064837D02*
G75*
G02X81509039Y-135065000I-1041130J1079837D01*
G01*
X80990000Y-132749000D02*
X80990000Y-132905000D01*
X80990000Y-135065000D02*
X80990000Y-135221000D01*
X72120000Y-136945000D02*
X76620000Y-136945000D01*
X70870000Y-132945000D02*
X70870000Y-134445000D01*
X76620000Y-130445000D02*
X72120000Y-130445000D01*
X77870000Y-134445000D02*
X77870000Y-132945000D01*
X153861392Y-80877665D02*
G75*
G03X153704484Y-84110000I1078608J-1672335D01*
G01*
X156018608Y-80877665D02*
G75*
G02X156175516Y-84110000I-1078608J-1672335D01*
G01*
X153860163Y-81508870D02*
G75*
G03X153860000Y-83590961I1079837J-1041130D01*
G01*
X156019837Y-81508870D02*
G75*
G02X156020000Y-83590961I-1079837J-1041130D01*
G01*
X153704000Y-84110000D02*
X153860000Y-84110000D01*
X156020000Y-84110000D02*
X156176000Y-84110000D01*
X153861392Y-94847665D02*
G75*
G03X153704484Y-98080000I1078608J-1672335D01*
G01*
X156018608Y-94847665D02*
G75*
G02X156175516Y-98080000I-1078608J-1672335D01*
G01*
X153860163Y-95478870D02*
G75*
G03X153860000Y-97560961I1079837J-1041130D01*
G01*
X156019837Y-95478870D02*
G75*
G02X156020000Y-97560961I-1079837J-1041130D01*
G01*
X153704000Y-98080000D02*
X153860000Y-98080000D01*
X156020000Y-98080000D02*
X156176000Y-98080000D01*
X139430000Y-75350000D02*
X143930000Y-75350000D01*
X138180000Y-71350000D02*
X138180000Y-72850000D01*
X143930000Y-68850000D02*
X139430000Y-68850000D01*
X145180000Y-72850000D02*
X145180000Y-71350000D01*
X107680000Y-89320000D02*
X112180000Y-89320000D01*
X106430000Y-85320000D02*
X106430000Y-86820000D01*
X112180000Y-82820000D02*
X107680000Y-82820000D01*
X113430000Y-86820000D02*
X113430000Y-85320000D01*
X153861392Y-126597665D02*
G75*
G03X153704484Y-129830000I1078608J-1672335D01*
G01*
X156018608Y-126597665D02*
G75*
G02X156175516Y-129830000I-1078608J-1672335D01*
G01*
X153860163Y-127228870D02*
G75*
G03X153860000Y-129310961I1079837J-1041130D01*
G01*
X156019837Y-127228870D02*
G75*
G02X156020000Y-129310961I-1079837J-1041130D01*
G01*
X153704000Y-129830000D02*
X153860000Y-129830000D01*
X156020000Y-129830000D02*
X156176000Y-129830000D01*
X75967335Y-120206392D02*
G75*
G03X72735000Y-120049484I-1672335J-1078608D01*
G01*
X75967335Y-122363608D02*
G75*
G02X72735000Y-122520516I-1672335J1078608D01*
G01*
X75336130Y-120205163D02*
G75*
G03X73254039Y-120205000I-1041130J-1079837D01*
G01*
X75336130Y-122364837D02*
G75*
G02X73254039Y-122365000I-1041130J1079837D01*
G01*
X72735000Y-120049000D02*
X72735000Y-120205000D01*
X72735000Y-122365000D02*
X72735000Y-122521000D01*
X153861392Y-121517665D02*
G75*
G03X153704484Y-124750000I1078608J-1672335D01*
G01*
X156018608Y-121517665D02*
G75*
G02X156175516Y-124750000I-1078608J-1672335D01*
G01*
X153860163Y-122148870D02*
G75*
G03X153860000Y-124230961I1079837J-1041130D01*
G01*
X156019837Y-122148870D02*
G75*
G02X156020000Y-124230961I-1079837J-1041130D01*
G01*
X153704000Y-124750000D02*
X153860000Y-124750000D01*
X156020000Y-124750000D02*
X156176000Y-124750000D01*
D12*
X79240000Y-121960000D02*
X78240000Y-121960000D01*
X78240000Y-120610000D02*
X79240000Y-120610000D01*
X151630000Y-112435000D02*
X150630000Y-112435000D01*
X150630000Y-111085000D02*
X151630000Y-111085000D01*
X151630000Y-97195000D02*
X150630000Y-97195000D01*
X150630000Y-95845000D02*
X151630000Y-95845000D01*
X151630000Y-83225000D02*
X150630000Y-83225000D01*
X150630000Y-81875000D02*
X151630000Y-81875000D01*
X86622000Y-109180000D02*
X87622000Y-109180000D01*
X87622000Y-110530000D02*
X86622000Y-110530000D01*
X86876000Y-133310000D02*
X87876000Y-133310000D01*
X87876000Y-134660000D02*
X86876000Y-134660000D01*
X151630000Y-127675000D02*
X150630000Y-127675000D01*
X150630000Y-126325000D02*
X151630000Y-126325000D01*
X151630000Y-122595000D02*
X150630000Y-122595000D01*
X150630000Y-121245000D02*
X151630000Y-121245000D01*
X123785000Y-134104000D02*
X123785000Y-133104000D01*
X125135000Y-133104000D02*
X125135000Y-134104000D01*
X121245000Y-134104000D02*
X121245000Y-133104000D01*
X122595000Y-133104000D02*
X122595000Y-134104000D01*
X129540000Y-135610000D02*
X131090000Y-135610000D01*
X131090000Y-135610000D02*
X131090000Y-138710000D01*
X131090000Y-138710000D02*
X129540000Y-138710000D01*
X128270000Y-138430000D02*
X118110000Y-138430000D01*
X118110000Y-138430000D02*
X118110000Y-135890000D01*
X118110000Y-135890000D02*
X128270000Y-135890000D01*
X128270000Y-138430000D02*
X128270000Y-135890000D01*
X106680000Y-135610000D02*
X108230000Y-135610000D01*
X108230000Y-135610000D02*
X108230000Y-138710000D01*
X108230000Y-138710000D02*
X106680000Y-138710000D01*
X105410000Y-138430000D02*
X95250000Y-138430000D01*
X95250000Y-138430000D02*
X95250000Y-135890000D01*
X95250000Y-135890000D02*
X105410000Y-135890000D01*
X105410000Y-138430000D02*
X105410000Y-135890000D01*
X113030000Y-138430000D02*
X110490000Y-138430000D01*
X115850000Y-138710000D02*
X114300000Y-138710000D01*
X113030000Y-138430000D02*
X113030000Y-135890000D01*
X114300000Y-135610000D02*
X115850000Y-135610000D01*
X115850000Y-135610000D02*
X115850000Y-138710000D01*
X113030000Y-135890000D02*
X110490000Y-135890000D01*
X110490000Y-135890000D02*
X110490000Y-138430000D01*
X151701667Y-65857381D02*
X151368333Y-65381190D01*
X151130238Y-65857381D02*
X151130238Y-64857381D01*
X151511191Y-64857381D01*
X151606429Y-64905000D01*
X151654048Y-64952619D01*
X151701667Y-65047857D01*
X151701667Y-65190714D01*
X151654048Y-65285952D01*
X151606429Y-65333571D01*
X151511191Y-65381190D01*
X151130238Y-65381190D01*
X152130238Y-65333571D02*
X152463572Y-65333571D01*
X152606429Y-65857381D02*
X152130238Y-65857381D01*
X152130238Y-64857381D01*
X152606429Y-64857381D01*
X153368334Y-65333571D02*
X153035000Y-65333571D01*
X153035000Y-65857381D02*
X153035000Y-64857381D01*
X153511191Y-64857381D01*
X154035000Y-64857381D02*
X154035000Y-65095476D01*
X153796905Y-65000238D02*
X154035000Y-65095476D01*
X154273096Y-65000238D01*
X153892143Y-65285952D02*
X154035000Y-65095476D01*
X154177858Y-65285952D01*
X154796905Y-64857381D02*
X154796905Y-65095476D01*
X154558810Y-65000238D02*
X154796905Y-65095476D01*
X155035001Y-65000238D01*
X154654048Y-65285952D02*
X154796905Y-65095476D01*
X154939763Y-65285952D01*
X151701667Y-135072381D02*
X151368333Y-134596190D01*
X151130238Y-135072381D02*
X151130238Y-134072381D01*
X151511191Y-134072381D01*
X151606429Y-134120000D01*
X151654048Y-134167619D01*
X151701667Y-134262857D01*
X151701667Y-134405714D01*
X151654048Y-134500952D01*
X151606429Y-134548571D01*
X151511191Y-134596190D01*
X151130238Y-134596190D01*
X152130238Y-134548571D02*
X152463572Y-134548571D01*
X152606429Y-135072381D02*
X152130238Y-135072381D01*
X152130238Y-134072381D01*
X152606429Y-134072381D01*
X153368334Y-134548571D02*
X153035000Y-134548571D01*
X153035000Y-135072381D02*
X153035000Y-134072381D01*
X153511191Y-134072381D01*
X154035000Y-134072381D02*
X154035000Y-134310476D01*
X153796905Y-134215238D02*
X154035000Y-134310476D01*
X154273096Y-134215238D01*
X153892143Y-134500952D02*
X154035000Y-134310476D01*
X154177858Y-134500952D01*
X154796905Y-134072381D02*
X154796905Y-134310476D01*
X154558810Y-134215238D02*
X154796905Y-134310476D01*
X155035001Y-134215238D01*
X154654048Y-134500952D02*
X154796905Y-134310476D01*
X154939763Y-134500952D01*
X61531667Y-135072381D02*
X61198333Y-134596190D01*
X60960238Y-135072381D02*
X60960238Y-134072381D01*
X61341191Y-134072381D01*
X61436429Y-134120000D01*
X61484048Y-134167619D01*
X61531667Y-134262857D01*
X61531667Y-134405714D01*
X61484048Y-134500952D01*
X61436429Y-134548571D01*
X61341191Y-134596190D01*
X60960238Y-134596190D01*
X61960238Y-134548571D02*
X62293572Y-134548571D01*
X62436429Y-135072381D02*
X61960238Y-135072381D01*
X61960238Y-134072381D01*
X62436429Y-134072381D01*
X63198334Y-134548571D02*
X62865000Y-134548571D01*
X62865000Y-135072381D02*
X62865000Y-134072381D01*
X63341191Y-134072381D01*
X63865000Y-134072381D02*
X63865000Y-134310476D01*
X63626905Y-134215238D02*
X63865000Y-134310476D01*
X64103096Y-134215238D01*
X63722143Y-134500952D02*
X63865000Y-134310476D01*
X64007858Y-134500952D01*
X64626905Y-134072381D02*
X64626905Y-134310476D01*
X64388810Y-134215238D02*
X64626905Y-134310476D01*
X64865001Y-134215238D01*
X64484048Y-134500952D02*
X64626905Y-134310476D01*
X64769763Y-134500952D01*
X140739881Y-124269405D02*
X141549405Y-124269405D01*
X141644643Y-124221786D01*
X141692262Y-124174167D01*
X141739881Y-124078929D01*
X141739881Y-123888452D01*
X141692262Y-123793214D01*
X141644643Y-123745595D01*
X141549405Y-123697976D01*
X140739881Y-123697976D01*
X141073214Y-122793214D02*
X141739881Y-122793214D01*
X140692262Y-123031310D02*
X141406548Y-123269405D01*
X141406548Y-122650357D01*
X64222381Y-80668572D02*
X64222381Y-80478095D01*
X64270000Y-80382857D01*
X64365238Y-80287619D01*
X64555714Y-80240000D01*
X64889048Y-80240000D01*
X65079524Y-80287619D01*
X65174762Y-80382857D01*
X65222381Y-80478095D01*
X65222381Y-80668572D01*
X65174762Y-80763810D01*
X65079524Y-80859048D01*
X64889048Y-80906667D01*
X64555714Y-80906667D01*
X64365238Y-80859048D01*
X64270000Y-80763810D01*
X64222381Y-80668572D01*
X65222381Y-79335238D02*
X65222381Y-79811429D01*
X64222381Y-79811429D01*
X64698571Y-79001905D02*
X64698571Y-78668571D01*
X65222381Y-78525714D02*
X65222381Y-79001905D01*
X64222381Y-79001905D01*
X64222381Y-78525714D01*
X65222381Y-78097143D02*
X64222381Y-78097143D01*
X64222381Y-77859048D01*
X64270000Y-77716190D01*
X64365238Y-77620952D01*
X64460476Y-77573333D01*
X64650952Y-77525714D01*
X64793810Y-77525714D01*
X64984286Y-77573333D01*
X65079524Y-77620952D01*
X65174762Y-77716190D01*
X65222381Y-77859048D01*
X65222381Y-78097143D01*
X65222381Y-76573333D02*
X65222381Y-77144762D01*
X65222381Y-76859048D02*
X64222381Y-76859048D01*
X64365238Y-76954286D01*
X64460476Y-77049524D01*
X64508095Y-77144762D01*
X84582095Y-100050381D02*
X84582095Y-100859905D01*
X84629714Y-100955143D01*
X84677333Y-101002762D01*
X84772571Y-101050381D01*
X84963048Y-101050381D01*
X85058286Y-101002762D01*
X85105905Y-100955143D01*
X85153524Y-100859905D01*
X85153524Y-100050381D01*
X85582095Y-100145619D02*
X85629714Y-100098000D01*
X85724952Y-100050381D01*
X85963048Y-100050381D01*
X86058286Y-100098000D01*
X86105905Y-100145619D01*
X86153524Y-100240857D01*
X86153524Y-100336095D01*
X86105905Y-100478952D01*
X85534476Y-101050381D01*
X86153524Y-101050381D01*
X77216857Y-64905143D02*
X77931143Y-67905143D01*
X78502572Y-65762286D01*
X79074000Y-67905143D01*
X79788286Y-64905143D01*
X82074000Y-67762286D02*
X81788286Y-67905143D01*
X81216857Y-67905143D01*
X80931143Y-67762286D01*
X80788286Y-67476571D01*
X80788286Y-66333714D01*
X80931143Y-66048000D01*
X81216857Y-65905143D01*
X81788286Y-65905143D01*
X82074000Y-66048000D01*
X82216857Y-66333714D01*
X82216857Y-66619429D01*
X80788286Y-66905143D01*
X83502572Y-67905143D02*
X83502572Y-64905143D01*
X84502572Y-67048000D01*
X85502572Y-64905143D01*
X85502572Y-67905143D01*
X87359714Y-67905143D02*
X87074000Y-67762286D01*
X86931143Y-67619429D01*
X86788286Y-67333714D01*
X86788286Y-66476571D01*
X86931143Y-66190857D01*
X87074000Y-66048000D01*
X87359714Y-65905143D01*
X87788286Y-65905143D01*
X88074000Y-66048000D01*
X88216857Y-66190857D01*
X88359714Y-66476571D01*
X88359714Y-67333714D01*
X88216857Y-67619429D01*
X88074000Y-67762286D01*
X87788286Y-67905143D01*
X87359714Y-67905143D01*
X89502572Y-67762286D02*
X89788286Y-67905143D01*
X90359714Y-67905143D01*
X90645429Y-67762286D01*
X90788286Y-67476571D01*
X90788286Y-67333714D01*
X90645429Y-67048000D01*
X90359714Y-66905143D01*
X89931143Y-66905143D01*
X89645429Y-66762286D01*
X89502572Y-66476571D01*
X89502572Y-66333714D01*
X89645429Y-66048000D01*
X89931143Y-65905143D01*
X90359714Y-65905143D01*
X90645429Y-66048000D01*
X106239524Y-67302381D02*
X106810953Y-67302381D01*
X106525238Y-68302381D02*
X106525238Y-67302381D01*
X107144286Y-67778571D02*
X107477620Y-67778571D01*
X107620477Y-68302381D02*
X107144286Y-68302381D01*
X107144286Y-67302381D01*
X107620477Y-67302381D01*
X108049048Y-68302381D02*
X108049048Y-67302381D01*
X108382382Y-68016667D01*
X108715715Y-67302381D01*
X108715715Y-68302381D01*
X109191905Y-68302381D02*
X109191905Y-67302381D01*
X109572858Y-67302381D01*
X109668096Y-67350000D01*
X109715715Y-67397619D01*
X109763334Y-67492857D01*
X109763334Y-67635714D01*
X109715715Y-67730952D01*
X109668096Y-67778571D01*
X109572858Y-67826190D01*
X109191905Y-67826190D01*
X109953810Y-68397619D02*
X110715715Y-68397619D01*
X110953810Y-67302381D02*
X110953810Y-68111905D01*
X111001429Y-68207143D01*
X111049048Y-68254762D01*
X111144286Y-68302381D01*
X111334763Y-68302381D01*
X111430001Y-68254762D01*
X111477620Y-68207143D01*
X111525239Y-68111905D01*
X111525239Y-67302381D01*
X112001429Y-68302381D02*
X112001429Y-67302381D01*
X112382382Y-67302381D01*
X112477620Y-67350000D01*
X112525239Y-67397619D01*
X112572858Y-67492857D01*
X112572858Y-67635714D01*
X112525239Y-67730952D01*
X112477620Y-67778571D01*
X112382382Y-67826190D01*
X112001429Y-67826190D01*
X113525239Y-68302381D02*
X112953810Y-68302381D01*
X113239524Y-68302381D02*
X113239524Y-67302381D01*
X113144286Y-67445238D01*
X113049048Y-67540476D01*
X112953810Y-67588095D01*
X152337143Y-114649047D02*
X152384762Y-114696666D01*
X152432381Y-114839523D01*
X152432381Y-114934761D01*
X152384762Y-115077619D01*
X152289524Y-115172857D01*
X152194286Y-115220476D01*
X152003810Y-115268095D01*
X151860952Y-115268095D01*
X151670476Y-115220476D01*
X151575238Y-115172857D01*
X151480000Y-115077619D01*
X151432381Y-114934761D01*
X151432381Y-114839523D01*
X151480000Y-114696666D01*
X151527619Y-114649047D01*
X151432381Y-114030000D02*
X151432381Y-113839523D01*
X151480000Y-113744285D01*
X151575238Y-113649047D01*
X151765714Y-113601428D01*
X152099048Y-113601428D01*
X152289524Y-113649047D01*
X152384762Y-113744285D01*
X152432381Y-113839523D01*
X152432381Y-114030000D01*
X152384762Y-114125238D01*
X152289524Y-114220476D01*
X152099048Y-114268095D01*
X151765714Y-114268095D01*
X151575238Y-114220476D01*
X151480000Y-114125238D01*
X151432381Y-114030000D01*
X151432381Y-112982381D02*
X151432381Y-112791904D01*
X151480000Y-112696666D01*
X151575238Y-112601428D01*
X151765714Y-112553809D01*
X152099048Y-112553809D01*
X152289524Y-112601428D01*
X152384762Y-112696666D01*
X152432381Y-112791904D01*
X152432381Y-112982381D01*
X152384762Y-113077619D01*
X152289524Y-113172857D01*
X152099048Y-113220476D01*
X151765714Y-113220476D01*
X151575238Y-113172857D01*
X151480000Y-113077619D01*
X151432381Y-112982381D01*
X152432381Y-111649047D02*
X152432381Y-112125238D01*
X151432381Y-112125238D01*
X152432381Y-110791904D02*
X152432381Y-111363333D01*
X152432381Y-111077619D02*
X151432381Y-111077619D01*
X151575238Y-111172857D01*
X151670476Y-111268095D01*
X151718095Y-111363333D01*
X79026191Y-106823571D02*
X78692857Y-106823571D01*
X78692857Y-107347381D02*
X78692857Y-106347381D01*
X79169048Y-106347381D01*
X79502381Y-107061667D02*
X79978572Y-107061667D01*
X79407143Y-107347381D02*
X79740476Y-106347381D01*
X80073810Y-107347381D01*
X80407143Y-107347381D02*
X80407143Y-106347381D01*
X80978572Y-107347381D01*
X80978572Y-106347381D01*
X81216667Y-107442619D02*
X81978572Y-107442619D01*
X82169048Y-107061667D02*
X82645239Y-107061667D01*
X82073810Y-107347381D02*
X82407143Y-106347381D01*
X82740477Y-107347381D01*
X83073810Y-106347381D02*
X83073810Y-107156905D01*
X83121429Y-107252143D01*
X83169048Y-107299762D01*
X83264286Y-107347381D01*
X83454763Y-107347381D01*
X83550001Y-107299762D01*
X83597620Y-107252143D01*
X83645239Y-107156905D01*
X83645239Y-106347381D01*
X83978572Y-106347381D02*
X84550001Y-106347381D01*
X84264286Y-107347381D02*
X84264286Y-106347381D01*
X85073810Y-106347381D02*
X85264287Y-106347381D01*
X85359525Y-106395000D01*
X85454763Y-106490238D01*
X85502382Y-106680714D01*
X85502382Y-107014048D01*
X85454763Y-107204524D01*
X85359525Y-107299762D01*
X85264287Y-107347381D01*
X85073810Y-107347381D01*
X84978572Y-107299762D01*
X84883334Y-107204524D01*
X84835715Y-107014048D01*
X84835715Y-106680714D01*
X84883334Y-106490238D01*
X84978572Y-106395000D01*
X85073810Y-106347381D01*
X86454763Y-107347381D02*
X85883334Y-107347381D01*
X86169048Y-107347381D02*
X86169048Y-106347381D01*
X86073810Y-106490238D01*
X85978572Y-106585476D01*
X85883334Y-106633095D01*
X70846191Y-105243571D02*
X70512857Y-105243571D01*
X70512857Y-105767381D02*
X70512857Y-104767381D01*
X70989048Y-104767381D01*
X71322381Y-105481667D02*
X71798572Y-105481667D01*
X71227143Y-105767381D02*
X71560476Y-104767381D01*
X71893810Y-105767381D01*
X72227143Y-105767381D02*
X72227143Y-104767381D01*
X72798572Y-105767381D01*
X72798572Y-104767381D01*
X73036667Y-105862619D02*
X73798572Y-105862619D01*
X73989048Y-105481667D02*
X74465239Y-105481667D01*
X73893810Y-105767381D02*
X74227143Y-104767381D01*
X74560477Y-105767381D01*
X74893810Y-104767381D02*
X74893810Y-105576905D01*
X74941429Y-105672143D01*
X74989048Y-105719762D01*
X75084286Y-105767381D01*
X75274763Y-105767381D01*
X75370001Y-105719762D01*
X75417620Y-105672143D01*
X75465239Y-105576905D01*
X75465239Y-104767381D01*
X75798572Y-104767381D02*
X76370001Y-104767381D01*
X76084286Y-105767381D02*
X76084286Y-104767381D01*
X76893810Y-104767381D02*
X77084287Y-104767381D01*
X77179525Y-104815000D01*
X77274763Y-104910238D01*
X77322382Y-105100714D01*
X77322382Y-105434048D01*
X77274763Y-105624524D01*
X77179525Y-105719762D01*
X77084287Y-105767381D01*
X76893810Y-105767381D01*
X76798572Y-105719762D01*
X76703334Y-105624524D01*
X76655715Y-105434048D01*
X76655715Y-105100714D01*
X76703334Y-104910238D01*
X76798572Y-104815000D01*
X76893810Y-104767381D01*
X77703334Y-104862619D02*
X77750953Y-104815000D01*
X77846191Y-104767381D01*
X78084287Y-104767381D01*
X78179525Y-104815000D01*
X78227144Y-104862619D01*
X78274763Y-104957857D01*
X78274763Y-105053095D01*
X78227144Y-105195952D01*
X77655715Y-105767381D01*
X78274763Y-105767381D01*
X79835715Y-130953571D02*
X79502381Y-130953571D01*
X79502381Y-131477381D02*
X79502381Y-130477381D01*
X79978572Y-130477381D01*
X80311905Y-131191667D02*
X80788096Y-131191667D01*
X80216667Y-131477381D02*
X80550000Y-130477381D01*
X80883334Y-131477381D01*
X81216667Y-131477381D02*
X81216667Y-130477381D01*
X81788096Y-131477381D01*
X81788096Y-130477381D01*
X82026191Y-131572619D02*
X82788096Y-131572619D01*
X83216667Y-130477381D02*
X83407144Y-130477381D01*
X83502382Y-130525000D01*
X83597620Y-130620238D01*
X83645239Y-130810714D01*
X83645239Y-131144048D01*
X83597620Y-131334524D01*
X83502382Y-131429762D01*
X83407144Y-131477381D01*
X83216667Y-131477381D01*
X83121429Y-131429762D01*
X83026191Y-131334524D01*
X82978572Y-131144048D01*
X82978572Y-130810714D01*
X83026191Y-130620238D01*
X83121429Y-130525000D01*
X83216667Y-130477381D01*
X84073810Y-131477381D02*
X84073810Y-130477381D01*
X84645239Y-131477381D01*
X84645239Y-130477381D01*
X85645239Y-131477381D02*
X85073810Y-131477381D01*
X85359524Y-131477381D02*
X85359524Y-130477381D01*
X85264286Y-130620238D01*
X85169048Y-130715476D01*
X85073810Y-130763095D01*
X71655715Y-129373571D02*
X71322381Y-129373571D01*
X71322381Y-129897381D02*
X71322381Y-128897381D01*
X71798572Y-128897381D01*
X72131905Y-129611667D02*
X72608096Y-129611667D01*
X72036667Y-129897381D02*
X72370000Y-128897381D01*
X72703334Y-129897381D01*
X73036667Y-129897381D02*
X73036667Y-128897381D01*
X73608096Y-129897381D01*
X73608096Y-128897381D01*
X73846191Y-129992619D02*
X74608096Y-129992619D01*
X75036667Y-128897381D02*
X75227144Y-128897381D01*
X75322382Y-128945000D01*
X75417620Y-129040238D01*
X75465239Y-129230714D01*
X75465239Y-129564048D01*
X75417620Y-129754524D01*
X75322382Y-129849762D01*
X75227144Y-129897381D01*
X75036667Y-129897381D01*
X74941429Y-129849762D01*
X74846191Y-129754524D01*
X74798572Y-129564048D01*
X74798572Y-129230714D01*
X74846191Y-129040238D01*
X74941429Y-128945000D01*
X75036667Y-128897381D01*
X75893810Y-129897381D02*
X75893810Y-128897381D01*
X76465239Y-129897381D01*
X76465239Y-128897381D01*
X76893810Y-128992619D02*
X76941429Y-128945000D01*
X77036667Y-128897381D01*
X77274763Y-128897381D01*
X77370001Y-128945000D01*
X77417620Y-128992619D01*
X77465239Y-129087857D01*
X77465239Y-129183095D01*
X77417620Y-129325952D01*
X76846191Y-129897381D01*
X77465239Y-129897381D01*
X152432381Y-84573810D02*
X151432381Y-84573810D01*
X151908571Y-84573810D02*
X151908571Y-84002381D01*
X152432381Y-84002381D02*
X151432381Y-84002381D01*
X151908571Y-83526191D02*
X151908571Y-83192857D01*
X152432381Y-83050000D02*
X152432381Y-83526191D01*
X151432381Y-83526191D01*
X151432381Y-83050000D01*
X152146667Y-82669048D02*
X152146667Y-82192857D01*
X152432381Y-82764286D02*
X151432381Y-82430953D01*
X152432381Y-82097619D01*
X151432381Y-81907143D02*
X151432381Y-81335714D01*
X152432381Y-81621429D02*
X151432381Y-81621429D01*
X152432381Y-80478571D02*
X152432381Y-81050000D01*
X152432381Y-80764286D02*
X151432381Y-80764286D01*
X151575238Y-80859524D01*
X151670476Y-80954762D01*
X151718095Y-81050000D01*
X151432381Y-97948572D02*
X151432381Y-97758095D01*
X151480000Y-97662857D01*
X151575238Y-97567619D01*
X151765714Y-97520000D01*
X152099048Y-97520000D01*
X152289524Y-97567619D01*
X152384762Y-97662857D01*
X152432381Y-97758095D01*
X152432381Y-97948572D01*
X152384762Y-98043810D01*
X152289524Y-98139048D01*
X152099048Y-98186667D01*
X151765714Y-98186667D01*
X151575238Y-98139048D01*
X151480000Y-98043810D01*
X151432381Y-97948572D01*
X151908571Y-96758095D02*
X151908571Y-97091429D01*
X152432381Y-97091429D02*
X151432381Y-97091429D01*
X151432381Y-96615238D01*
X151908571Y-95900952D02*
X151908571Y-96234286D01*
X152432381Y-96234286D02*
X151432381Y-96234286D01*
X151432381Y-95758095D01*
X152432381Y-94853333D02*
X152432381Y-95424762D01*
X152432381Y-95139048D02*
X151432381Y-95139048D01*
X151575238Y-95234286D01*
X151670476Y-95329524D01*
X151718095Y-95424762D01*
X139751429Y-68302381D02*
X139418095Y-67826190D01*
X139180000Y-68302381D02*
X139180000Y-67302381D01*
X139560953Y-67302381D01*
X139656191Y-67350000D01*
X139703810Y-67397619D01*
X139751429Y-67492857D01*
X139751429Y-67635714D01*
X139703810Y-67730952D01*
X139656191Y-67778571D01*
X139560953Y-67826190D01*
X139180000Y-67826190D01*
X140180000Y-67778571D02*
X140513334Y-67778571D01*
X140656191Y-68302381D02*
X140180000Y-68302381D01*
X140180000Y-67302381D01*
X140656191Y-67302381D01*
X141037143Y-68254762D02*
X141180000Y-68302381D01*
X141418096Y-68302381D01*
X141513334Y-68254762D01*
X141560953Y-68207143D01*
X141608572Y-68111905D01*
X141608572Y-68016667D01*
X141560953Y-67921429D01*
X141513334Y-67873810D01*
X141418096Y-67826190D01*
X141227619Y-67778571D01*
X141132381Y-67730952D01*
X141084762Y-67683333D01*
X141037143Y-67588095D01*
X141037143Y-67492857D01*
X141084762Y-67397619D01*
X141132381Y-67350000D01*
X141227619Y-67302381D01*
X141465715Y-67302381D01*
X141608572Y-67350000D01*
X142037143Y-67778571D02*
X142370477Y-67778571D01*
X142513334Y-68302381D02*
X142037143Y-68302381D01*
X142037143Y-67302381D01*
X142513334Y-67302381D01*
X142799048Y-67302381D02*
X143370477Y-67302381D01*
X143084762Y-68302381D02*
X143084762Y-67302381D01*
X144227620Y-68302381D02*
X143656191Y-68302381D01*
X143941905Y-68302381D02*
X143941905Y-67302381D01*
X143846667Y-67445238D01*
X143751429Y-67540476D01*
X143656191Y-67588095D01*
X105144286Y-81272381D02*
X105715715Y-81272381D01*
X105430000Y-82272381D02*
X105430000Y-81272381D01*
X106049048Y-81748571D02*
X106382382Y-81748571D01*
X106525239Y-82272381D02*
X106049048Y-82272381D01*
X106049048Y-81272381D01*
X106525239Y-81272381D01*
X106953810Y-82272381D02*
X106953810Y-81272381D01*
X107287144Y-81986667D01*
X107620477Y-81272381D01*
X107620477Y-82272381D01*
X108096667Y-82272381D02*
X108096667Y-81272381D01*
X108477620Y-81272381D01*
X108572858Y-81320000D01*
X108620477Y-81367619D01*
X108668096Y-81462857D01*
X108668096Y-81605714D01*
X108620477Y-81700952D01*
X108572858Y-81748571D01*
X108477620Y-81796190D01*
X108096667Y-81796190D01*
X108858572Y-82367619D02*
X109620477Y-82367619D01*
X109858572Y-82272381D02*
X109858572Y-81272381D01*
X110096667Y-81272381D01*
X110239525Y-81320000D01*
X110334763Y-81415238D01*
X110382382Y-81510476D01*
X110430001Y-81700952D01*
X110430001Y-81843810D01*
X110382382Y-82034286D01*
X110334763Y-82129524D01*
X110239525Y-82224762D01*
X110096667Y-82272381D01*
X109858572Y-82272381D01*
X111049048Y-81272381D02*
X111239525Y-81272381D01*
X111334763Y-81320000D01*
X111430001Y-81415238D01*
X111477620Y-81605714D01*
X111477620Y-81939048D01*
X111430001Y-82129524D01*
X111334763Y-82224762D01*
X111239525Y-82272381D01*
X111049048Y-82272381D01*
X110953810Y-82224762D01*
X110858572Y-82129524D01*
X110810953Y-81939048D01*
X110810953Y-81605714D01*
X110858572Y-81415238D01*
X110953810Y-81320000D01*
X111049048Y-81272381D01*
X111810953Y-81272381D02*
X112049048Y-82272381D01*
X112239525Y-81558095D01*
X112430001Y-82272381D01*
X112668096Y-81272381D01*
X113049048Y-82272381D02*
X113049048Y-81272381D01*
X113620477Y-82272381D01*
X113620477Y-81272381D01*
X114620477Y-82272381D02*
X114049048Y-82272381D01*
X114334762Y-82272381D02*
X114334762Y-81272381D01*
X114239524Y-81415238D01*
X114144286Y-81510476D01*
X114049048Y-81558095D01*
X154122381Y-134770000D02*
X154122381Y-135246191D01*
X153122381Y-135246191D01*
X153598571Y-134436667D02*
X153598571Y-134103333D01*
X154122381Y-133960476D02*
X154122381Y-134436667D01*
X153122381Y-134436667D01*
X153122381Y-133960476D01*
X154122381Y-133531905D02*
X153122381Y-133531905D01*
X153122381Y-133293810D01*
X153170000Y-133150952D01*
X153265238Y-133055714D01*
X153360476Y-133008095D01*
X153550952Y-132960476D01*
X153693810Y-132960476D01*
X153884286Y-133008095D01*
X153979524Y-133055714D01*
X154074762Y-133150952D01*
X154122381Y-133293810D01*
X154122381Y-133531905D01*
X154217619Y-132770000D02*
X154217619Y-132008095D01*
X153836667Y-131817619D02*
X153836667Y-131341428D01*
X154122381Y-131912857D02*
X153122381Y-131579524D01*
X154122381Y-131246190D01*
X154027143Y-130341428D02*
X154074762Y-130389047D01*
X154122381Y-130531904D01*
X154122381Y-130627142D01*
X154074762Y-130770000D01*
X153979524Y-130865238D01*
X153884286Y-130912857D01*
X153693810Y-130960476D01*
X153550952Y-130960476D01*
X153360476Y-130912857D01*
X153265238Y-130865238D01*
X153170000Y-130770000D01*
X153122381Y-130627142D01*
X153122381Y-130531904D01*
X153170000Y-130389047D01*
X153217619Y-130341428D01*
X153122381Y-130055714D02*
X153122381Y-129484285D01*
X154122381Y-129770000D02*
X153122381Y-129770000D01*
X153122381Y-129150952D02*
X153931905Y-129150952D01*
X154027143Y-129103333D01*
X154074762Y-129055714D01*
X154122381Y-128960476D01*
X154122381Y-128769999D01*
X154074762Y-128674761D01*
X154027143Y-128627142D01*
X153931905Y-128579523D01*
X153122381Y-128579523D01*
X153836667Y-128150952D02*
X153836667Y-127674761D01*
X154122381Y-128246190D02*
X153122381Y-127912857D01*
X154122381Y-127579523D01*
X154122381Y-126769999D02*
X154122381Y-127246190D01*
X153122381Y-127246190D01*
X154217619Y-126674761D02*
X154217619Y-125912856D01*
X154027143Y-125103332D02*
X154074762Y-125150951D01*
X154122381Y-125293808D01*
X154122381Y-125389046D01*
X154074762Y-125531904D01*
X153979524Y-125627142D01*
X153884286Y-125674761D01*
X153693810Y-125722380D01*
X153550952Y-125722380D01*
X153360476Y-125674761D01*
X153265238Y-125627142D01*
X153170000Y-125531904D01*
X153122381Y-125389046D01*
X153122381Y-125293808D01*
X153170000Y-125150951D01*
X153217619Y-125103332D01*
X153122381Y-124484285D02*
X153122381Y-124293808D01*
X153170000Y-124198570D01*
X153265238Y-124103332D01*
X153455714Y-124055713D01*
X153789048Y-124055713D01*
X153979524Y-124103332D01*
X154074762Y-124198570D01*
X154122381Y-124293808D01*
X154122381Y-124484285D01*
X154074762Y-124579523D01*
X153979524Y-124674761D01*
X153789048Y-124722380D01*
X153455714Y-124722380D01*
X153265238Y-124674761D01*
X153170000Y-124579523D01*
X153122381Y-124484285D01*
X153122381Y-123436666D02*
X153122381Y-123246189D01*
X153170000Y-123150951D01*
X153265238Y-123055713D01*
X153455714Y-123008094D01*
X153789048Y-123008094D01*
X153979524Y-123055713D01*
X154074762Y-123150951D01*
X154122381Y-123246189D01*
X154122381Y-123436666D01*
X154074762Y-123531904D01*
X153979524Y-123627142D01*
X153789048Y-123674761D01*
X153455714Y-123674761D01*
X153265238Y-123627142D01*
X153170000Y-123531904D01*
X153122381Y-123436666D01*
X154122381Y-122103332D02*
X154122381Y-122579523D01*
X153122381Y-122579523D01*
X154122381Y-121246189D02*
X154122381Y-121817618D01*
X154122381Y-121531904D02*
X153122381Y-121531904D01*
X153265238Y-121627142D01*
X153360476Y-121722380D01*
X153408095Y-121817618D01*
X68366428Y-118777381D02*
X67890237Y-118777381D01*
X67890237Y-117777381D01*
X68699761Y-118253571D02*
X69033095Y-118253571D01*
X69175952Y-118777381D02*
X68699761Y-118777381D01*
X68699761Y-117777381D01*
X69175952Y-117777381D01*
X69604523Y-118777381D02*
X69604523Y-117777381D01*
X69842618Y-117777381D01*
X69985476Y-117825000D01*
X70080714Y-117920238D01*
X70128333Y-118015476D01*
X70175952Y-118205952D01*
X70175952Y-118348810D01*
X70128333Y-118539286D01*
X70080714Y-118634524D01*
X69985476Y-118729762D01*
X69842618Y-118777381D01*
X69604523Y-118777381D01*
X70366428Y-118872619D02*
X71128333Y-118872619D01*
X71318809Y-118491667D02*
X71795000Y-118491667D01*
X71223571Y-118777381D02*
X71556904Y-117777381D01*
X71890238Y-118777381D01*
X72795000Y-118682143D02*
X72747381Y-118729762D01*
X72604524Y-118777381D01*
X72509286Y-118777381D01*
X72366428Y-118729762D01*
X72271190Y-118634524D01*
X72223571Y-118539286D01*
X72175952Y-118348810D01*
X72175952Y-118205952D01*
X72223571Y-118015476D01*
X72271190Y-117920238D01*
X72366428Y-117825000D01*
X72509286Y-117777381D01*
X72604524Y-117777381D01*
X72747381Y-117825000D01*
X72795000Y-117872619D01*
X73080714Y-117777381D02*
X73652143Y-117777381D01*
X73366428Y-118777381D02*
X73366428Y-117777381D01*
X73985476Y-117777381D02*
X73985476Y-118586905D01*
X74033095Y-118682143D01*
X74080714Y-118729762D01*
X74175952Y-118777381D01*
X74366429Y-118777381D01*
X74461667Y-118729762D01*
X74509286Y-118682143D01*
X74556905Y-118586905D01*
X74556905Y-117777381D01*
X74985476Y-118491667D02*
X75461667Y-118491667D01*
X74890238Y-118777381D02*
X75223571Y-117777381D01*
X75556905Y-118777381D01*
X76366429Y-118777381D02*
X75890238Y-118777381D01*
X75890238Y-117777381D01*
X76461667Y-118872619D02*
X77223572Y-118872619D01*
X77795001Y-118253571D02*
X77461667Y-118253571D01*
X77461667Y-118777381D02*
X77461667Y-117777381D01*
X77937858Y-117777381D01*
X78271191Y-118491667D02*
X78747382Y-118491667D01*
X78175953Y-118777381D02*
X78509286Y-117777381D01*
X78842620Y-118777381D01*
X79175953Y-118777381D02*
X79175953Y-117777381D01*
X79747382Y-118777381D01*
X79747382Y-117777381D01*
X80747382Y-118777381D02*
X80175953Y-118777381D01*
X80461667Y-118777381D02*
X80461667Y-117777381D01*
X80366429Y-117920238D01*
X80271191Y-118015476D01*
X80175953Y-118063095D01*
X154122381Y-129523334D02*
X154122381Y-129999525D01*
X153122381Y-129999525D01*
X153598571Y-129190001D02*
X153598571Y-128856667D01*
X154122381Y-128713810D02*
X154122381Y-129190001D01*
X153122381Y-129190001D01*
X153122381Y-128713810D01*
X154122381Y-128285239D02*
X153122381Y-128285239D01*
X153122381Y-128047144D01*
X153170000Y-127904286D01*
X153265238Y-127809048D01*
X153360476Y-127761429D01*
X153550952Y-127713810D01*
X153693810Y-127713810D01*
X153884286Y-127761429D01*
X153979524Y-127809048D01*
X154074762Y-127904286D01*
X154122381Y-128047144D01*
X154122381Y-128285239D01*
X154217619Y-127523334D02*
X154217619Y-126761429D01*
X153836667Y-126570953D02*
X153836667Y-126094762D01*
X154122381Y-126666191D02*
X153122381Y-126332858D01*
X154122381Y-125999524D01*
X154027143Y-125094762D02*
X154074762Y-125142381D01*
X154122381Y-125285238D01*
X154122381Y-125380476D01*
X154074762Y-125523334D01*
X153979524Y-125618572D01*
X153884286Y-125666191D01*
X153693810Y-125713810D01*
X153550952Y-125713810D01*
X153360476Y-125666191D01*
X153265238Y-125618572D01*
X153170000Y-125523334D01*
X153122381Y-125380476D01*
X153122381Y-125285238D01*
X153170000Y-125142381D01*
X153217619Y-125094762D01*
X153122381Y-124809048D02*
X153122381Y-124237619D01*
X154122381Y-124523334D02*
X153122381Y-124523334D01*
X153122381Y-123904286D02*
X153931905Y-123904286D01*
X154027143Y-123856667D01*
X154074762Y-123809048D01*
X154122381Y-123713810D01*
X154122381Y-123523333D01*
X154074762Y-123428095D01*
X154027143Y-123380476D01*
X153931905Y-123332857D01*
X153122381Y-123332857D01*
X153836667Y-122904286D02*
X153836667Y-122428095D01*
X154122381Y-122999524D02*
X153122381Y-122666191D01*
X154122381Y-122332857D01*
X154122381Y-121523333D02*
X154122381Y-121999524D01*
X153122381Y-121999524D01*
X154217619Y-121428095D02*
X154217619Y-120666190D01*
X154122381Y-120428095D02*
X153122381Y-120428095D01*
X153598571Y-120428095D02*
X153598571Y-119856666D01*
X154122381Y-119856666D02*
X153122381Y-119856666D01*
X153598571Y-119380476D02*
X153598571Y-119047142D01*
X154122381Y-118904285D02*
X154122381Y-119380476D01*
X153122381Y-119380476D01*
X153122381Y-118904285D01*
X153836667Y-118523333D02*
X153836667Y-118047142D01*
X154122381Y-118618571D02*
X153122381Y-118285238D01*
X154122381Y-117951904D01*
X153122381Y-117761428D02*
X153122381Y-117189999D01*
X154122381Y-117475714D02*
X153122381Y-117475714D01*
X154122381Y-116332856D02*
X154122381Y-116904285D01*
X154122381Y-116618571D02*
X153122381Y-116618571D01*
X153265238Y-116713809D01*
X153360476Y-116809047D01*
X153408095Y-116904285D01*
X78573334Y-119837381D02*
X78240000Y-119361190D01*
X78001905Y-119837381D02*
X78001905Y-118837381D01*
X78382858Y-118837381D01*
X78478096Y-118885000D01*
X78525715Y-118932619D01*
X78573334Y-119027857D01*
X78573334Y-119170714D01*
X78525715Y-119265952D01*
X78478096Y-119313571D01*
X78382858Y-119361190D01*
X78001905Y-119361190D01*
X78954286Y-118932619D02*
X79001905Y-118885000D01*
X79097143Y-118837381D01*
X79335239Y-118837381D01*
X79430477Y-118885000D01*
X79478096Y-118932619D01*
X79525715Y-119027857D01*
X79525715Y-119123095D01*
X79478096Y-119265952D01*
X78906667Y-119837381D01*
X79525715Y-119837381D01*
X150963334Y-110312381D02*
X150630000Y-109836190D01*
X150391905Y-110312381D02*
X150391905Y-109312381D01*
X150772858Y-109312381D01*
X150868096Y-109360000D01*
X150915715Y-109407619D01*
X150963334Y-109502857D01*
X150963334Y-109645714D01*
X150915715Y-109740952D01*
X150868096Y-109788571D01*
X150772858Y-109836190D01*
X150391905Y-109836190D01*
X151296667Y-109312381D02*
X151915715Y-109312381D01*
X151582381Y-109693333D01*
X151725239Y-109693333D01*
X151820477Y-109740952D01*
X151868096Y-109788571D01*
X151915715Y-109883810D01*
X151915715Y-110121905D01*
X151868096Y-110217143D01*
X151820477Y-110264762D01*
X151725239Y-110312381D01*
X151439524Y-110312381D01*
X151344286Y-110264762D01*
X151296667Y-110217143D01*
X150963334Y-95072381D02*
X150630000Y-94596190D01*
X150391905Y-95072381D02*
X150391905Y-94072381D01*
X150772858Y-94072381D01*
X150868096Y-94120000D01*
X150915715Y-94167619D01*
X150963334Y-94262857D01*
X150963334Y-94405714D01*
X150915715Y-94500952D01*
X150868096Y-94548571D01*
X150772858Y-94596190D01*
X150391905Y-94596190D01*
X151820477Y-94405714D02*
X151820477Y-95072381D01*
X151582381Y-94024762D02*
X151344286Y-94739048D01*
X151963334Y-94739048D01*
X150963334Y-81102381D02*
X150630000Y-80626190D01*
X150391905Y-81102381D02*
X150391905Y-80102381D01*
X150772858Y-80102381D01*
X150868096Y-80150000D01*
X150915715Y-80197619D01*
X150963334Y-80292857D01*
X150963334Y-80435714D01*
X150915715Y-80530952D01*
X150868096Y-80578571D01*
X150772858Y-80626190D01*
X150391905Y-80626190D01*
X151868096Y-80102381D02*
X151391905Y-80102381D01*
X151344286Y-80578571D01*
X151391905Y-80530952D01*
X151487143Y-80483333D01*
X151725239Y-80483333D01*
X151820477Y-80530952D01*
X151868096Y-80578571D01*
X151915715Y-80673810D01*
X151915715Y-80911905D01*
X151868096Y-81007143D01*
X151820477Y-81054762D01*
X151725239Y-81102381D01*
X151487143Y-81102381D01*
X151391905Y-81054762D01*
X151344286Y-81007143D01*
X86955334Y-112207381D02*
X86622000Y-111731190D01*
X86383905Y-112207381D02*
X86383905Y-111207381D01*
X86764858Y-111207381D01*
X86860096Y-111255000D01*
X86907715Y-111302619D01*
X86955334Y-111397857D01*
X86955334Y-111540714D01*
X86907715Y-111635952D01*
X86860096Y-111683571D01*
X86764858Y-111731190D01*
X86383905Y-111731190D01*
X87812477Y-111207381D02*
X87622000Y-111207381D01*
X87526762Y-111255000D01*
X87479143Y-111302619D01*
X87383905Y-111445476D01*
X87336286Y-111635952D01*
X87336286Y-112016905D01*
X87383905Y-112112143D01*
X87431524Y-112159762D01*
X87526762Y-112207381D01*
X87717239Y-112207381D01*
X87812477Y-112159762D01*
X87860096Y-112112143D01*
X87907715Y-112016905D01*
X87907715Y-111778810D01*
X87860096Y-111683571D01*
X87812477Y-111635952D01*
X87717239Y-111588333D01*
X87526762Y-111588333D01*
X87431524Y-111635952D01*
X87383905Y-111683571D01*
X87336286Y-111778810D01*
X87209334Y-136337381D02*
X86876000Y-135861190D01*
X86637905Y-136337381D02*
X86637905Y-135337381D01*
X87018858Y-135337381D01*
X87114096Y-135385000D01*
X87161715Y-135432619D01*
X87209334Y-135527857D01*
X87209334Y-135670714D01*
X87161715Y-135765952D01*
X87114096Y-135813571D01*
X87018858Y-135861190D01*
X86637905Y-135861190D01*
X87542667Y-135337381D02*
X88209334Y-135337381D01*
X87780762Y-136337381D01*
X150963334Y-125552381D02*
X150630000Y-125076190D01*
X150391905Y-125552381D02*
X150391905Y-124552381D01*
X150772858Y-124552381D01*
X150868096Y-124600000D01*
X150915715Y-124647619D01*
X150963334Y-124742857D01*
X150963334Y-124885714D01*
X150915715Y-124980952D01*
X150868096Y-125028571D01*
X150772858Y-125076190D01*
X150391905Y-125076190D01*
X151534762Y-124980952D02*
X151439524Y-124933333D01*
X151391905Y-124885714D01*
X151344286Y-124790476D01*
X151344286Y-124742857D01*
X151391905Y-124647619D01*
X151439524Y-124600000D01*
X151534762Y-124552381D01*
X151725239Y-124552381D01*
X151820477Y-124600000D01*
X151868096Y-124647619D01*
X151915715Y-124742857D01*
X151915715Y-124790476D01*
X151868096Y-124885714D01*
X151820477Y-124933333D01*
X151725239Y-124980952D01*
X151534762Y-124980952D01*
X151439524Y-125028571D01*
X151391905Y-125076190D01*
X151344286Y-125171429D01*
X151344286Y-125361905D01*
X151391905Y-125457143D01*
X151439524Y-125504762D01*
X151534762Y-125552381D01*
X151725239Y-125552381D01*
X151820477Y-125504762D01*
X151868096Y-125457143D01*
X151915715Y-125361905D01*
X151915715Y-125171429D01*
X151868096Y-125076190D01*
X151820477Y-125028571D01*
X151725239Y-124980952D01*
X150963334Y-120472381D02*
X150630000Y-119996190D01*
X150391905Y-120472381D02*
X150391905Y-119472381D01*
X150772858Y-119472381D01*
X150868096Y-119520000D01*
X150915715Y-119567619D01*
X150963334Y-119662857D01*
X150963334Y-119805714D01*
X150915715Y-119900952D01*
X150868096Y-119948571D01*
X150772858Y-119996190D01*
X150391905Y-119996190D01*
X151439524Y-120472381D02*
X151630000Y-120472381D01*
X151725239Y-120424762D01*
X151772858Y-120377143D01*
X151868096Y-120234286D01*
X151915715Y-120043810D01*
X151915715Y-119662857D01*
X151868096Y-119567619D01*
X151820477Y-119520000D01*
X151725239Y-119472381D01*
X151534762Y-119472381D01*
X151439524Y-119520000D01*
X151391905Y-119567619D01*
X151344286Y-119662857D01*
X151344286Y-119900952D01*
X151391905Y-119996190D01*
X151439524Y-120043810D01*
X151534762Y-120091429D01*
X151725239Y-120091429D01*
X151820477Y-120043810D01*
X151868096Y-119996190D01*
X151915715Y-119900952D01*
X126812381Y-134246857D02*
X126336190Y-134580191D01*
X126812381Y-134818286D02*
X125812381Y-134818286D01*
X125812381Y-134437333D01*
X125860000Y-134342095D01*
X125907619Y-134294476D01*
X126002857Y-134246857D01*
X126145714Y-134246857D01*
X126240952Y-134294476D01*
X126288571Y-134342095D01*
X126336190Y-134437333D01*
X126336190Y-134818286D01*
X126812381Y-133294476D02*
X126812381Y-133865905D01*
X126812381Y-133580191D02*
X125812381Y-133580191D01*
X125955238Y-133675429D01*
X126050476Y-133770667D01*
X126098095Y-133865905D01*
X125812381Y-132675429D02*
X125812381Y-132580190D01*
X125860000Y-132484952D01*
X125907619Y-132437333D01*
X126002857Y-132389714D01*
X126193333Y-132342095D01*
X126431429Y-132342095D01*
X126621905Y-132389714D01*
X126717143Y-132437333D01*
X126764762Y-132484952D01*
X126812381Y-132580190D01*
X126812381Y-132675429D01*
X126764762Y-132770667D01*
X126717143Y-132818286D01*
X126621905Y-132865905D01*
X126431429Y-132913524D01*
X126193333Y-132913524D01*
X126002857Y-132865905D01*
X125907619Y-132818286D01*
X125860000Y-132770667D01*
X125812381Y-132675429D01*
X124272381Y-134246857D02*
X123796190Y-134580191D01*
X124272381Y-134818286D02*
X123272381Y-134818286D01*
X123272381Y-134437333D01*
X123320000Y-134342095D01*
X123367619Y-134294476D01*
X123462857Y-134246857D01*
X123605714Y-134246857D01*
X123700952Y-134294476D01*
X123748571Y-134342095D01*
X123796190Y-134437333D01*
X123796190Y-134818286D01*
X124272381Y-133294476D02*
X124272381Y-133865905D01*
X124272381Y-133580191D02*
X123272381Y-133580191D01*
X123415238Y-133675429D01*
X123510476Y-133770667D01*
X123558095Y-133865905D01*
X124272381Y-132342095D02*
X124272381Y-132913524D01*
X124272381Y-132627810D02*
X123272381Y-132627810D01*
X123415238Y-132723048D01*
X123510476Y-132818286D01*
X123558095Y-132913524D01*
X135092381Y-137898095D02*
X134092381Y-137898095D01*
X134092381Y-137517142D01*
X134140000Y-137421904D01*
X134187619Y-137374285D01*
X134282857Y-137326666D01*
X134425714Y-137326666D01*
X134520952Y-137374285D01*
X134568571Y-137421904D01*
X134616190Y-137517142D01*
X134616190Y-137898095D01*
X134187619Y-136945714D02*
X134140000Y-136898095D01*
X134092381Y-136802857D01*
X134092381Y-136564761D01*
X134140000Y-136469523D01*
X134187619Y-136421904D01*
X134282857Y-136374285D01*
X134378095Y-136374285D01*
X134520952Y-136421904D01*
X135092381Y-136993333D01*
X135092381Y-136374285D01*
X111232381Y-137493333D02*
X111946667Y-137493333D01*
X112089524Y-137540953D01*
X112184762Y-137636191D01*
X112232381Y-137779048D01*
X112232381Y-137874286D01*
X112232381Y-136493333D02*
X112232381Y-137064762D01*
X112232381Y-136779048D02*
X111232381Y-136779048D01*
X111375238Y-136874286D01*
X111470476Y-136969524D01*
X111518095Y-137064762D01*
X118852381Y-137493333D02*
X119566667Y-137493333D01*
X119709524Y-137540953D01*
X119804762Y-137636191D01*
X119852381Y-137779048D01*
X119852381Y-137874286D01*
X118947619Y-137064762D02*
X118900000Y-137017143D01*
X118852381Y-136921905D01*
X118852381Y-136683809D01*
X118900000Y-136588571D01*
X118947619Y-136540952D01*
X119042857Y-136493333D01*
X119138095Y-136493333D01*
X119280952Y-136540952D01*
X119852381Y-137112381D01*
X119852381Y-136493333D01*
X60261667Y-65222381D02*
X59928333Y-64746190D01*
X59690238Y-65222381D02*
X59690238Y-64222381D01*
X60071191Y-64222381D01*
X60166429Y-64270000D01*
X60214048Y-64317619D01*
X60261667Y-64412857D01*
X60261667Y-64555714D01*
X60214048Y-64650952D01*
X60166429Y-64698571D01*
X60071191Y-64746190D01*
X59690238Y-64746190D01*
X60690238Y-64698571D02*
X61023572Y-64698571D01*
X61166429Y-65222381D02*
X60690238Y-65222381D01*
X60690238Y-64222381D01*
X61166429Y-64222381D01*
X61928334Y-64698571D02*
X61595000Y-64698571D01*
X61595000Y-65222381D02*
X61595000Y-64222381D01*
X62071191Y-64222381D01*
X62595000Y-64222381D02*
X62595000Y-64460476D01*
X62356905Y-64365238D02*
X62595000Y-64460476D01*
X62833096Y-64365238D01*
X62452143Y-64650952D02*
X62595000Y-64460476D01*
X62737858Y-64650952D01*
X63356905Y-64222381D02*
X63356905Y-64460476D01*
X63118810Y-64365238D02*
X63356905Y-64460476D01*
X63595001Y-64365238D01*
X63214048Y-64650952D02*
X63356905Y-64460476D01*
X63499763Y-64650952D01*
M02*
